<svg width="35" height="35" viewBox="0 0 35 35" fill="none" xmlns="http://www.w3.org/2000/svg">
<path d="M24.8336 25.4789C24.6287 25.2752 24.3515 25.1609 24.0625 25.1609C23.7735 25.1609 23.4963 25.2752 23.2914 25.4789L18.5938 30.1711V2.1875C18.5938 1.89742 18.4785 1.61922 18.2734 1.4141C18.0683 1.20898 17.7901 1.09375 17.5 1.09375C17.2099 1.09375 16.9317 1.20898 16.7266 1.4141C16.5215 1.61922 16.4063 1.89742 16.4063 2.1875V30.1711L11.7086 25.4789C11.4994 25.2997 11.2302 25.2061 10.9549 25.2167C10.6797 25.2274 10.4186 25.3415 10.2238 25.5363C10.029 25.7311 9.91486 25.9922 9.90423 26.2674C9.8936 26.5427 9.98723 26.8119 10.1664 27.0211L16.7289 33.5836C16.8306 33.6861 16.9516 33.7675 17.0848 33.823C17.2181 33.8785 17.3611 33.9071 17.5055 33.9071C17.6499 33.9071 17.7928 33.8785 17.9261 33.823C18.0594 33.7675 18.1804 33.6861 18.282 33.5836L24.8445 27.0211C25.0468 26.8147 25.1592 26.5367 25.1571 26.2477C25.1551 25.9588 25.0388 25.6824 24.8336 25.4789Z" fill="white"/>
</svg>
