<svg width="30" height="40" viewBox="0 0 30 40" fill="none" xmlns="http://www.w3.org/2000/svg">
<path d="M30 8.75V36.25C30 38.3211 28.3211 40 26.25 40H3.75C1.67891 40 0 38.3211 0 36.25V8.75C0 6.67891 1.67891 5 3.75 5H10C10 2.24297 12.243 0 15 0C17.757 0 20 2.24297 20 5H26.25C28.3211 5 30 6.67891 30 8.75ZM15 3.125C13.9645 3.125 13.125 3.96445 13.125 5C13.125 6.03555 13.9645 6.875 15 6.875C16.0355 6.875 16.875 6.03555 16.875 5C16.875 3.96445 16.0355 3.125 15 3.125ZM22.5 12.0312V10.4687C22.5 10.3444 22.4506 10.2252 22.3627 10.1373C22.2748 10.0494 22.1556 10 22.0312 10H7.96875C7.84443 10 7.7252 10.0494 7.63729 10.1373C7.54939 10.2252 7.5 10.3444 7.5 10.4687V12.0312C7.5 12.1556 7.54939 12.2748 7.63729 12.3627C7.7252 12.4506 7.84443 12.5 7.96875 12.5H22.0312C22.1556 12.5 22.2748 12.4506 22.3627 12.3627C22.4506 12.2748 22.5 12.1556 22.5 12.0312Z" fill="#0A65B9"/>
</svg>
