<svg width="33" height="49" viewBox="0 0 33 49" fill="none" xmlns="http://www.w3.org/2000/svg">
<path d="M16.5442 0C9.05912 0 4.21104 3.06673 0.404806 8.53597C-0.28566 9.52811 -0.0727908 10.8884 0.890373 11.6187L4.93564 14.686C5.90837 15.4236 7.2924 15.2511 8.05395 14.297C10.4029 11.3543 12.1454 9.65996 15.8145 9.65996C18.6994 9.65996 22.2677 11.5166 22.2677 14.3141C22.2677 16.4289 20.5219 17.515 17.6734 19.112C14.3516 20.9744 9.9558 23.2921 9.9558 29.0902V30.008C9.9558 31.251 10.9634 32.2586 12.2064 32.2586H19.0024C20.2454 32.2586 21.253 31.251 21.253 30.008V29.4667C21.253 25.4475 33 25.2801 33 14.4039C33.0001 6.21316 24.5039 0 16.5442 0ZM15.6044 35.0211C12.0226 35.0211 9.10854 37.9352 9.10854 41.517C9.10854 45.0988 12.0226 48.0128 15.6044 48.0128C19.1863 48.0128 22.1003 45.0988 22.1003 41.5169C22.1003 37.9351 19.1863 35.0211 15.6044 35.0211Z" fill="#0A65B9"/>
</svg>
