<svg width="41" height="39" viewBox="0 0 41 39" fill="none" xmlns="http://www.w3.org/2000/svg">
<path d="M41 8.20002V9.56669C41 9.74792 40.928 9.92173 40.7999 10.0499C40.6717 10.178 40.4979 10.25 40.3167 10.25H38.2667V11.275C38.2667 11.8411 37.8077 12.3 37.2417 12.3H3.75833C3.19228 12.3 2.73333 11.8411 2.73333 11.275V10.25H0.683333C0.502102 10.25 0.328294 10.178 0.200144 10.0499C0.0719938 9.92173 0 9.74792 0 9.56669V8.20002C9.77289e-07 8.06483 0.0401012 7.93268 0.115227 7.82029C0.190353 7.7079 0.297129 7.62032 0.422044 7.56862L20.2387 0.0519565C20.406 -0.0173188 20.594 -0.0173188 20.7613 0.0519565L40.578 7.56862C40.7029 7.62032 40.8096 7.7079 40.8848 7.82029C40.9599 7.93268 41 8.06483 41 8.20002ZM38.95 34.1667H2.05C0.917802 34.1667 0 35.0845 0 36.2167V37.5834C0 37.7646 0.0719938 37.9384 0.200144 38.0665C0.328294 38.1947 0.502102 38.2667 0.683333 38.2667H40.3167C40.4979 38.2667 40.6717 38.1947 40.7999 38.0665C40.928 37.9384 41 37.7646 41 37.5834V36.2167C41 35.0845 40.0822 34.1667 38.95 34.1667ZM6.83333 13.6667V30.0667H3.75833C3.19228 30.0667 2.73333 30.5256 2.73333 31.0917V32.8H38.2667V31.0917C38.2667 30.5256 37.8077 30.0667 37.2417 30.0667H34.1667V13.6667H28.7V30.0667H23.2333V13.6667H17.7667V30.0667H12.3V13.6667H6.83333Z" fill="#0A65B9"/>
</svg>
