<svg width="56" height="40" viewBox="0 0 56 40" fill="none" xmlns="http://www.w3.org/2000/svg">
<path d="M8.4 16.8C11.4887 16.8 14 14.2888 14 11.2C14 8.11125 11.4887 5.6 8.4 5.6C5.31125 5.6 2.8 8.11125 2.8 11.2C2.8 14.2888 5.31125 16.8 8.4 16.8ZM47.6 16.8C50.6887 16.8 53.2 14.2888 53.2 11.2C53.2 8.11125 50.6887 5.6 47.6 5.6C44.5112 5.6 42 8.11125 42 11.2C42 14.2888 44.5112 16.8 47.6 16.8ZM50.4 19.6H44.8C43.26 19.6 41.8687 20.2213 40.8537 21.2275C44.38 23.1613 46.8825 26.6525 47.425 30.8H53.2C54.7487 30.8 56 29.5488 56 28V25.2C56 22.1113 53.4888 19.6 50.4 19.6ZM28 19.6C33.4162 19.6 37.8 15.2163 37.8 9.8C37.8 4.38375 33.4162 0 28 0C22.5837 0 18.2 4.38375 18.2 9.8C18.2 15.2163 22.5837 19.6 28 19.6ZM34.72 22.4H33.9937C32.1737 23.275 30.1525 23.8 28 23.8C25.8475 23.8 23.835 23.275 22.0063 22.4H21.28C15.715 22.4 11.2 26.915 11.2 32.48V35C11.2 37.3188 13.0813 39.2 15.4 39.2H40.6C42.9188 39.2 44.8 37.3188 44.8 35V32.48C44.8 26.915 40.285 22.4 34.72 22.4ZM15.1463 21.2275C14.1313 20.2213 12.74 19.6 11.2 19.6H5.6C2.51125 19.6 0 22.1113 0 25.2V28C0 29.5488 1.25125 30.8 2.8 30.8H8.56625C9.1175 26.6525 11.62 23.1613 15.1463 21.2275Z" fill="#0A65B9"/>
</svg>
