<svg width="422" height="448" viewBox="0 0 422 448" fill="none" xmlns="http://www.w3.org/2000/svg">
<path d="M367.907 120.157L327.436 79.5811C321.56 73.711 313.593 70.4138 305.287 70.4138C296.981 70.4138 289.014 73.711 283.138 79.5811L9.18472 353.639C6.27311 356.546 3.96323 359.999 2.38722 363.8C0.81121 367.6 0 371.674 0 375.789C0 379.903 0.81121 383.977 2.38722 387.778C3.96323 391.578 6.27311 395.031 9.18472 397.938L49.6551 438.408C52.5621 441.32 56.0147 443.63 59.8153 445.206C63.6159 446.782 67.6899 447.593 71.8044 447.593C75.9188 447.593 79.9928 446.782 83.7934 445.206C87.594 443.63 91.0466 441.32 93.9537 438.408L367.907 164.329C373.749 158.463 377.028 150.522 377.028 142.243C377.028 133.964 373.749 126.023 367.907 120.157ZM282.149 197.059C275.879 197.084 269.742 195.247 264.516 191.781C259.29 188.316 255.21 183.377 252.793 177.591C250.376 171.805 249.73 165.432 250.938 159.278C252.146 153.125 255.153 147.469 259.579 143.026C264.004 138.583 269.648 135.554 275.796 134.321C281.945 133.088 288.32 133.708 294.116 136.102C299.912 138.496 304.867 142.556 308.353 147.768C311.84 152.98 313.701 159.11 313.701 165.381C313.706 173.762 310.388 181.804 304.473 187.742C298.559 193.68 290.53 197.031 282.149 197.059V197.059Z" fill="url(#paint0_linear_69_620)"/>
<path d="M412.079 50.7428L371.609 10.1673C365.732 4.29722 357.766 1 349.46 1C341.153 1 333.187 4.29722 327.31 10.1673L53.3571 284.226C50.4455 287.133 48.1356 290.585 46.5596 294.386C44.9836 298.186 44.1724 302.261 44.1724 306.375C44.1724 310.489 44.9836 314.563 46.5596 318.364C48.1356 322.165 50.4455 325.617 53.3571 328.524L93.8274 368.995C96.7345 371.906 100.187 374.216 103.988 375.792C107.788 377.368 111.862 378.179 115.977 378.179C120.091 378.179 124.165 377.368 127.966 375.792C131.766 374.216 135.219 371.906 138.126 368.995L412.079 94.9152C417.921 89.0492 421.201 81.1077 421.201 72.829C421.201 64.5503 417.921 56.6088 412.079 50.7428ZM326.322 127.645C320.051 127.67 313.914 125.833 308.688 122.368C303.462 118.902 299.382 113.963 296.965 108.177C294.548 102.391 293.903 96.0178 295.111 89.8646C296.319 83.7114 299.326 78.0552 303.751 73.6123C308.176 69.1694 313.82 66.1398 319.969 64.9073C326.117 63.6747 332.493 64.2946 338.289 66.6885C344.084 69.0824 349.039 73.1425 352.526 78.3546C356.012 83.5667 357.873 89.6963 357.873 95.967C357.879 104.348 354.561 112.39 348.646 118.328C342.731 124.267 334.703 127.617 326.322 127.645V127.645Z" stroke="white" stroke-miterlimit="10"/>
<defs>
<linearGradient id="paint0_linear_69_620" x1="0.0136906" y1="258.942" x2="377.078" y2="258.942" gradientUnits="userSpaceOnUse">
<stop stop-color="#0888E4"/>
<stop offset="0.0001" stop-color="#0888E4"/>
<stop offset="1" stop-color="#1D92FF"/>
</linearGradient>
</defs>
</svg>
