<svg width="260" height="219" viewBox="0 0 260 219" fill="none" xmlns="http://www.w3.org/2000/svg">
<path opacity="0.3" d="M17.5975 130.32C17.5975 157.238 39.4192 179.06 66.3375 179.06C93.2559 179.06 115.078 157.238 115.078 130.32C115.078 103.402 93.2559 81.58 66.3375 81.58C39.4192 81.58 17.5975 103.402 17.5975 130.32Z" stroke="#0A65B9" stroke-miterlimit="10" stroke-linecap="round" stroke-dasharray="4.78 4.78"/>
<g opacity="0.5">
<path opacity="0.5" d="M20.0818 198.442C31.1726 209.533 49.1545 209.533 60.2454 198.442C71.3363 187.352 71.3363 169.37 60.2454 158.279C49.1545 147.188 31.1726 147.188 20.0817 158.279C8.99086 169.37 8.99087 187.352 20.0818 198.442Z" stroke="#0A65B9" stroke-miterlimit="10" stroke-linecap="round" stroke-dasharray="4.69 4.69"/>
</g>
<path opacity="0.3" d="M258.667 1L155.667 1V132.54H114.947" stroke="#0A65B9" stroke-miterlimit="10" stroke-linecap="round" stroke-dasharray="4.71 4.71"/>
</svg>
