<svg width="214" height="214" viewBox="0 0 214 214" fill="none" xmlns="http://www.w3.org/2000/svg">
<rect y="112" width="4" height="4" rx="2" fill="white" fill-opacity="0.42"/>
<rect width="4" height="4" rx="2" fill="white" fill-opacity="0.42"/>
<rect x="14" y="112" width="4" height="4" rx="2" fill="white" fill-opacity="0.42"/>
<rect x="14" width="4" height="4" rx="2" fill="white" fill-opacity="0.42"/>
<rect x="28" y="112" width="4" height="4" rx="2" fill="white" fill-opacity="0.42"/>
<rect x="28" width="4" height="4" rx="2" fill="white" fill-opacity="0.42"/>
<rect x="42" y="112" width="4" height="4" rx="2" fill="white" fill-opacity="0.42"/>
<rect x="42" width="4" height="4" rx="2" fill="white" fill-opacity="0.42"/>
<rect x="56" y="112" width="4" height="4" rx="2" fill="white" fill-opacity="0.42"/>
<rect x="56" width="4" height="4" rx="2" fill="white" fill-opacity="0.42"/>
<rect x="70" y="112" width="4" height="4" rx="2" fill="white" fill-opacity="0.42"/>
<rect x="70" width="4" height="4" rx="2" fill="white" fill-opacity="0.42"/>
<rect x="84" y="112" width="4" height="4" rx="2" fill="white" fill-opacity="0.42"/>
<rect x="84" width="4" height="4" rx="2" fill="white" fill-opacity="0.42"/>
<rect x="98" y="112" width="4" height="4" rx="2" fill="white" fill-opacity="0.42"/>
<rect x="98" width="4" height="4" rx="2" fill="white" fill-opacity="0.42"/>
<rect x="112" y="112" width="4" height="4" rx="2" fill="white" fill-opacity="0.42"/>
<rect x="112" width="4" height="4" rx="2" fill="white" fill-opacity="0.42"/>
<rect x="126" y="112" width="4" height="4" rx="2" fill="white" fill-opacity="0.42"/>
<rect x="126" width="4" height="4" rx="2" fill="white" fill-opacity="0.42"/>
<rect x="140" y="112" width="4" height="4" rx="2" fill="white" fill-opacity="0.42"/>
<rect x="140" width="4" height="4" rx="2" fill="white" fill-opacity="0.42"/>
<rect x="154" y="112" width="4" height="4" rx="2" fill="white" fill-opacity="0.42"/>
<rect x="154" width="4" height="4" rx="2" fill="white" fill-opacity="0.42"/>
<rect x="168" y="112" width="4" height="4" rx="2" fill="white" fill-opacity="0.42"/>
<rect x="168" width="4" height="4" rx="2" fill="white" fill-opacity="0.42"/>
<rect x="182" y="112" width="4" height="4" rx="2" fill="white" fill-opacity="0.42"/>
<rect x="182" width="4" height="4" rx="2" fill="white" fill-opacity="0.42"/>
<rect x="196" y="112" width="4" height="4" rx="2" fill="white" fill-opacity="0.42"/>
<rect x="196" width="4" height="4" rx="2" fill="white" fill-opacity="0.42"/>
<rect x="210" y="112" width="4" height="4" rx="2" fill="white" fill-opacity="0.42"/>
<rect x="210" width="4" height="4" rx="2" fill="white" fill-opacity="0.42"/>
<rect y="126" width="4" height="4" rx="2" fill="white" fill-opacity="0.42"/>
<rect y="14" width="4" height="4" rx="2" fill="white" fill-opacity="0.42"/>
<rect x="14" y="126" width="4" height="4" rx="2" fill="white" fill-opacity="0.42"/>
<rect x="14" y="14" width="4" height="4" rx="2" fill="white" fill-opacity="0.42"/>
<rect x="28" y="126" width="4" height="4" rx="2" fill="white" fill-opacity="0.42"/>
<rect x="28" y="14" width="4" height="4" rx="2" fill="white" fill-opacity="0.42"/>
<rect x="42" y="126" width="4" height="4" rx="2" fill="white" fill-opacity="0.42"/>
<rect x="42" y="14" width="4" height="4" rx="2" fill="white" fill-opacity="0.42"/>
<rect x="56" y="126" width="4" height="4" rx="2" fill="white" fill-opacity="0.42"/>
<rect x="56" y="14" width="4" height="4" rx="2" fill="white" fill-opacity="0.42"/>
<rect x="70" y="126" width="4" height="4" rx="2" fill="white" fill-opacity="0.42"/>
<rect x="70" y="14" width="4" height="4" rx="2" fill="white" fill-opacity="0.42"/>
<rect x="84" y="126" width="4" height="4" rx="2" fill="white" fill-opacity="0.42"/>
<rect x="84" y="14" width="4" height="4" rx="2" fill="white" fill-opacity="0.42"/>
<rect x="98" y="126" width="4" height="4" rx="2" fill="white" fill-opacity="0.42"/>
<rect x="98" y="14" width="4" height="4" rx="2" fill="white" fill-opacity="0.42"/>
<rect x="112" y="126" width="4" height="4" rx="2" fill="white" fill-opacity="0.42"/>
<rect x="112" y="14" width="4" height="4" rx="2" fill="white" fill-opacity="0.42"/>
<rect x="126" y="126" width="4" height="4" rx="2" fill="white" fill-opacity="0.42"/>
<rect x="126" y="14" width="4" height="4" rx="2" fill="white" fill-opacity="0.42"/>
<rect x="140" y="126" width="4" height="4" rx="2" fill="white" fill-opacity="0.42"/>
<rect x="140" y="14" width="4" height="4" rx="2" fill="white" fill-opacity="0.42"/>
<rect x="154" y="126" width="4" height="4" rx="2" fill="white" fill-opacity="0.42"/>
<rect x="154" y="14" width="4" height="4" rx="2" fill="white" fill-opacity="0.42"/>
<rect x="168" y="126" width="4" height="4" rx="2" fill="white" fill-opacity="0.42"/>
<rect x="168" y="14" width="4" height="4" rx="2" fill="white" fill-opacity="0.42"/>
<rect x="182" y="126" width="4" height="4" rx="2" fill="white" fill-opacity="0.42"/>
<rect x="182" y="14" width="4" height="4" rx="2" fill="white" fill-opacity="0.42"/>
<rect x="196" y="126" width="4" height="4" rx="2" fill="white" fill-opacity="0.42"/>
<rect x="196" y="14" width="4" height="4" rx="2" fill="white" fill-opacity="0.42"/>
<rect x="210" y="126" width="4" height="4" rx="2" fill="white" fill-opacity="0.42"/>
<rect x="210" y="14" width="4" height="4" rx="2" fill="white" fill-opacity="0.42"/>
<rect y="140" width="4" height="4" rx="2" fill="white" fill-opacity="0.42"/>
<rect y="28" width="4" height="4" rx="2" fill="white" fill-opacity="0.42"/>
<rect y="154" width="4" height="4" rx="2" fill="white" fill-opacity="0.42"/>
<rect y="42" width="4" height="4" rx="2" fill="white" fill-opacity="0.42"/>
<rect y="168" width="4" height="4" rx="2" fill="white" fill-opacity="0.42"/>
<rect y="56" width="4" height="4" rx="2" fill="white" fill-opacity="0.42"/>
<rect y="182" width="4" height="4" rx="2" fill="white" fill-opacity="0.42"/>
<rect y="70" width="4" height="4" rx="2" fill="white" fill-opacity="0.42"/>
<rect y="196" width="4" height="4" rx="2" fill="white" fill-opacity="0.42"/>
<rect y="84" width="4" height="4" rx="2" fill="white" fill-opacity="0.42"/>
<rect y="210" width="4" height="4" rx="2" fill="white" fill-opacity="0.42"/>
<rect y="98" width="4" height="4" rx="2" fill="white" fill-opacity="0.42"/>
<rect x="14" y="140" width="4" height="4" rx="2" fill="white" fill-opacity="0.42"/>
<rect x="14" y="28" width="4" height="4" rx="2" fill="white" fill-opacity="0.42"/>
<rect x="14" y="154" width="4" height="4" rx="2" fill="white" fill-opacity="0.42"/>
<rect x="14" y="42" width="4" height="4" rx="2" fill="white" fill-opacity="0.42"/>
<rect x="14" y="168" width="4" height="4" rx="2" fill="white" fill-opacity="0.42"/>
<rect x="14" y="56" width="4" height="4" rx="2" fill="white" fill-opacity="0.42"/>
<rect x="14" y="182" width="4" height="4" rx="2" fill="white" fill-opacity="0.42"/>
<rect x="14" y="70" width="4" height="4" rx="2" fill="white" fill-opacity="0.42"/>
<rect x="14" y="196" width="4" height="4" rx="2" fill="white" fill-opacity="0.42"/>
<rect x="14" y="84" width="4" height="4" rx="2" fill="white" fill-opacity="0.42"/>
<rect x="14" y="210" width="4" height="4" rx="2" fill="white" fill-opacity="0.42"/>
<rect x="14" y="98" width="4" height="4" rx="2" fill="white" fill-opacity="0.42"/>
<rect x="28" y="140" width="4" height="4" rx="2" fill="white" fill-opacity="0.42"/>
<rect x="28" y="28" width="4" height="4" rx="2" fill="white" fill-opacity="0.42"/>
<rect x="28" y="154" width="4" height="4" rx="2" fill="white" fill-opacity="0.42"/>
<rect x="28" y="42" width="4" height="4" rx="2" fill="white" fill-opacity="0.42"/>
<rect x="28" y="168" width="4" height="4" rx="2" fill="white" fill-opacity="0.42"/>
<rect x="28" y="56" width="4" height="4" rx="2" fill="white" fill-opacity="0.42"/>
<rect x="28" y="182" width="4" height="4" rx="2" fill="white" fill-opacity="0.42"/>
<rect x="28" y="70" width="4" height="4" rx="2" fill="white" fill-opacity="0.42"/>
<rect x="28" y="196" width="4" height="4" rx="2" fill="white" fill-opacity="0.42"/>
<rect x="28" y="84" width="4" height="4" rx="2" fill="white" fill-opacity="0.42"/>
<rect x="28" y="210" width="4" height="4" rx="2" fill="white" fill-opacity="0.42"/>
<rect x="28" y="98" width="4" height="4" rx="2" fill="white" fill-opacity="0.42"/>
<rect x="42" y="140" width="4" height="4" rx="2" fill="white" fill-opacity="0.42"/>
<rect x="42" y="28" width="4" height="4" rx="2" fill="white" fill-opacity="0.42"/>
<rect x="42" y="154" width="4" height="4" rx="2" fill="white" fill-opacity="0.42"/>
<rect x="42" y="42" width="4" height="4" rx="2" fill="white" fill-opacity="0.42"/>
<rect x="42" y="168" width="4" height="4" rx="2" fill="white" fill-opacity="0.42"/>
<rect x="42" y="56" width="4" height="4" rx="2" fill="white" fill-opacity="0.42"/>
<rect x="42" y="182" width="4" height="4" rx="2" fill="white" fill-opacity="0.42"/>
<rect x="42" y="70" width="4" height="4" rx="2" fill="white" fill-opacity="0.42"/>
<rect x="42" y="196" width="4" height="4" rx="2" fill="white" fill-opacity="0.42"/>
<rect x="42" y="84" width="4" height="4" rx="2" fill="white" fill-opacity="0.42"/>
<rect x="42" y="210" width="4" height="4" rx="2" fill="white" fill-opacity="0.42"/>
<rect x="42" y="98" width="4" height="4" rx="2" fill="white" fill-opacity="0.42"/>
<rect x="56" y="140" width="4" height="4" rx="2" fill="white" fill-opacity="0.42"/>
<rect x="56" y="28" width="4" height="4" rx="2" fill="white" fill-opacity="0.42"/>
<rect x="56" y="154" width="4" height="4" rx="2" fill="white" fill-opacity="0.42"/>
<rect x="56" y="42" width="4" height="4" rx="2" fill="white" fill-opacity="0.42"/>
<rect x="56" y="168" width="4" height="4" rx="2" fill="white" fill-opacity="0.42"/>
<rect x="56" y="56" width="4" height="4" rx="2" fill="white" fill-opacity="0.42"/>
<rect x="56" y="182" width="4" height="4" rx="2" fill="white" fill-opacity="0.42"/>
<rect x="56" y="70" width="4" height="4" rx="2" fill="white" fill-opacity="0.42"/>
<rect x="56" y="196" width="4" height="4" rx="2" fill="white" fill-opacity="0.42"/>
<rect x="56" y="84" width="4" height="4" rx="2" fill="white" fill-opacity="0.42"/>
<rect x="56" y="210" width="4" height="4" rx="2" fill="white" fill-opacity="0.42"/>
<rect x="56" y="98" width="4" height="4" rx="2" fill="white" fill-opacity="0.42"/>
<rect x="70" y="140" width="4" height="4" rx="2" fill="white" fill-opacity="0.42"/>
<rect x="70" y="28" width="4" height="4" rx="2" fill="white" fill-opacity="0.42"/>
<rect x="70" y="154" width="4" height="4" rx="2" fill="white" fill-opacity="0.42"/>
<rect x="70" y="42" width="4" height="4" rx="2" fill="white" fill-opacity="0.42"/>
<rect x="70" y="168" width="4" height="4" rx="2" fill="white" fill-opacity="0.42"/>
<rect x="70" y="56" width="4" height="4" rx="2" fill="white" fill-opacity="0.42"/>
<rect x="70" y="182" width="4" height="4" rx="2" fill="white" fill-opacity="0.42"/>
<rect x="70" y="70" width="4" height="4" rx="2" fill="white" fill-opacity="0.42"/>
<rect x="70" y="196" width="4" height="4" rx="2" fill="white" fill-opacity="0.42"/>
<rect x="70" y="84" width="4" height="4" rx="2" fill="white" fill-opacity="0.42"/>
<rect x="70" y="210" width="4" height="4" rx="2" fill="white" fill-opacity="0.42"/>
<rect x="70" y="98" width="4" height="4" rx="2" fill="white" fill-opacity="0.42"/>
<rect x="84" y="140" width="4" height="4" rx="2" fill="white" fill-opacity="0.42"/>
<rect x="84" y="28" width="4" height="4" rx="2" fill="white" fill-opacity="0.42"/>
<rect x="84" y="154" width="4" height="4" rx="2" fill="white" fill-opacity="0.42"/>
<rect x="84" y="42" width="4" height="4" rx="2" fill="white" fill-opacity="0.42"/>
<rect x="84" y="168" width="4" height="4" rx="2" fill="white" fill-opacity="0.42"/>
<rect x="84" y="56" width="4" height="4" rx="2" fill="white" fill-opacity="0.42"/>
<rect x="84" y="182" width="4" height="4" rx="2" fill="white" fill-opacity="0.42"/>
<rect x="84" y="70" width="4" height="4" rx="2" fill="white" fill-opacity="0.42"/>
<rect x="84" y="196" width="4" height="4" rx="2" fill="white" fill-opacity="0.42"/>
<rect x="84" y="84" width="4" height="4" rx="2" fill="white" fill-opacity="0.42"/>
<rect x="84" y="210" width="4" height="4" rx="2" fill="white" fill-opacity="0.42"/>
<rect x="84" y="98" width="4" height="4" rx="2" fill="white" fill-opacity="0.42"/>
<rect x="98" y="140" width="4" height="4" rx="2" fill="white" fill-opacity="0.42"/>
<rect x="98" y="28" width="4" height="4" rx="2" fill="white" fill-opacity="0.42"/>
<rect x="98" y="154" width="4" height="4" rx="2" fill="white" fill-opacity="0.42"/>
<rect x="98" y="42" width="4" height="4" rx="2" fill="white" fill-opacity="0.42"/>
<rect x="98" y="168" width="4" height="4" rx="2" fill="white" fill-opacity="0.42"/>
<rect x="98" y="56" width="4" height="4" rx="2" fill="white" fill-opacity="0.42"/>
<rect x="98" y="182" width="4" height="4" rx="2" fill="white" fill-opacity="0.42"/>
<rect x="98" y="70" width="4" height="4" rx="2" fill="white" fill-opacity="0.42"/>
<rect x="98" y="196" width="4" height="4" rx="2" fill="white" fill-opacity="0.42"/>
<rect x="98" y="84" width="4" height="4" rx="2" fill="white" fill-opacity="0.42"/>
<rect x="98" y="210" width="4" height="4" rx="2" fill="white" fill-opacity="0.42"/>
<rect x="98" y="98" width="4" height="4" rx="2" fill="white" fill-opacity="0.42"/>
<rect x="112" y="140" width="4" height="4" rx="2" fill="white" fill-opacity="0.42"/>
<rect x="112" y="28" width="4" height="4" rx="2" fill="white" fill-opacity="0.42"/>
<rect x="112" y="154" width="4" height="4" rx="2" fill="white" fill-opacity="0.42"/>
<rect x="112" y="42" width="4" height="4" rx="2" fill="white" fill-opacity="0.42"/>
<rect x="112" y="168" width="4" height="4" rx="2" fill="white" fill-opacity="0.42"/>
<rect x="112" y="56" width="4" height="4" rx="2" fill="white" fill-opacity="0.42"/>
<rect x="112" y="182" width="4" height="4" rx="2" fill="white" fill-opacity="0.42"/>
<rect x="112" y="70" width="4" height="4" rx="2" fill="white" fill-opacity="0.42"/>
<rect x="112" y="196" width="4" height="4" rx="2" fill="white" fill-opacity="0.42"/>
<rect x="112" y="84" width="4" height="4" rx="2" fill="white" fill-opacity="0.42"/>
<rect x="112" y="210" width="4" height="4" rx="2" fill="white" fill-opacity="0.42"/>
<rect x="112" y="98" width="4" height="4" rx="2" fill="white" fill-opacity="0.42"/>
<rect x="126" y="140" width="4" height="4" rx="2" fill="white" fill-opacity="0.42"/>
<rect x="126" y="28" width="4" height="4" rx="2" fill="white" fill-opacity="0.42"/>
<rect x="126" y="154" width="4" height="4" rx="2" fill="white" fill-opacity="0.42"/>
<rect x="126" y="42" width="4" height="4" rx="2" fill="white" fill-opacity="0.42"/>
<rect x="126" y="168" width="4" height="4" rx="2" fill="white" fill-opacity="0.42"/>
<rect x="126" y="56" width="4" height="4" rx="2" fill="white" fill-opacity="0.42"/>
<rect x="126" y="182" width="4" height="4" rx="2" fill="white" fill-opacity="0.42"/>
<rect x="126" y="70" width="4" height="4" rx="2" fill="white" fill-opacity="0.42"/>
<rect x="126" y="196" width="4" height="4" rx="2" fill="white" fill-opacity="0.42"/>
<rect x="126" y="84" width="4" height="4" rx="2" fill="white" fill-opacity="0.42"/>
<rect x="126" y="210" width="4" height="4" rx="2" fill="white" fill-opacity="0.42"/>
<rect x="126" y="98" width="4" height="4" rx="2" fill="white" fill-opacity="0.42"/>
<rect x="140" y="140" width="4" height="4" rx="2" fill="white" fill-opacity="0.42"/>
<rect x="140" y="28" width="4" height="4" rx="2" fill="white" fill-opacity="0.42"/>
<rect x="140" y="154" width="4" height="4" rx="2" fill="white" fill-opacity="0.42"/>
<rect x="140" y="42" width="4" height="4" rx="2" fill="white" fill-opacity="0.42"/>
<rect x="140" y="168" width="4" height="4" rx="2" fill="white" fill-opacity="0.42"/>
<rect x="140" y="56" width="4" height="4" rx="2" fill="white" fill-opacity="0.42"/>
<rect x="140" y="182" width="4" height="4" rx="2" fill="white" fill-opacity="0.42"/>
<rect x="140" y="70" width="4" height="4" rx="2" fill="white" fill-opacity="0.42"/>
<rect x="140" y="196" width="4" height="4" rx="2" fill="white" fill-opacity="0.42"/>
<rect x="140" y="84" width="4" height="4" rx="2" fill="white" fill-opacity="0.42"/>
<rect x="140" y="210" width="4" height="4" rx="2" fill="white" fill-opacity="0.42"/>
<rect x="140" y="98" width="4" height="4" rx="2" fill="white" fill-opacity="0.42"/>
<rect x="154" y="140" width="4" height="4" rx="2" fill="white" fill-opacity="0.42"/>
<rect x="154" y="28" width="4" height="4" rx="2" fill="white" fill-opacity="0.42"/>
<rect x="154" y="154" width="4" height="4" rx="2" fill="white" fill-opacity="0.42"/>
<rect x="154" y="42" width="4" height="4" rx="2" fill="white" fill-opacity="0.42"/>
<rect x="154" y="168" width="4" height="4" rx="2" fill="white" fill-opacity="0.42"/>
<rect x="154" y="56" width="4" height="4" rx="2" fill="white" fill-opacity="0.42"/>
<rect x="154" y="182" width="4" height="4" rx="2" fill="white" fill-opacity="0.42"/>
<rect x="154" y="70" width="4" height="4" rx="2" fill="white" fill-opacity="0.42"/>
<rect x="154" y="196" width="4" height="4" rx="2" fill="white" fill-opacity="0.42"/>
<rect x="154" y="84" width="4" height="4" rx="2" fill="white" fill-opacity="0.42"/>
<rect x="154" y="210" width="4" height="4" rx="2" fill="white" fill-opacity="0.42"/>
<rect x="154" y="98" width="4" height="4" rx="2" fill="white" fill-opacity="0.42"/>
<rect x="168" y="140" width="4" height="4" rx="2" fill="white" fill-opacity="0.42"/>
<rect x="168" y="28" width="4" height="4" rx="2" fill="white" fill-opacity="0.42"/>
<rect x="168" y="154" width="4" height="4" rx="2" fill="white" fill-opacity="0.42"/>
<rect x="168" y="42" width="4" height="4" rx="2" fill="white" fill-opacity="0.42"/>
<rect x="168" y="168" width="4" height="4" rx="2" fill="white" fill-opacity="0.42"/>
<rect x="168" y="56" width="4" height="4" rx="2" fill="white" fill-opacity="0.42"/>
<rect x="168" y="182" width="4" height="4" rx="2" fill="white" fill-opacity="0.42"/>
<rect x="168" y="70" width="4" height="4" rx="2" fill="white" fill-opacity="0.42"/>
<rect x="168" y="196" width="4" height="4" rx="2" fill="white" fill-opacity="0.42"/>
<rect x="168" y="84" width="4" height="4" rx="2" fill="white" fill-opacity="0.42"/>
<rect x="168" y="210" width="4" height="4" rx="2" fill="white" fill-opacity="0.42"/>
<rect x="168" y="98" width="4" height="4" rx="2" fill="white" fill-opacity="0.42"/>
<rect x="182" y="140" width="4" height="4" rx="2" fill="white" fill-opacity="0.42"/>
<rect x="182" y="28" width="4" height="4" rx="2" fill="white" fill-opacity="0.42"/>
<rect x="182" y="154" width="4" height="4" rx="2" fill="white" fill-opacity="0.42"/>
<rect x="182" y="42" width="4" height="4" rx="2" fill="white" fill-opacity="0.42"/>
<rect x="182" y="168" width="4" height="4" rx="2" fill="white" fill-opacity="0.42"/>
<rect x="182" y="56" width="4" height="4" rx="2" fill="white" fill-opacity="0.42"/>
<rect x="182" y="182" width="4" height="4" rx="2" fill="white" fill-opacity="0.42"/>
<rect x="182" y="70" width="4" height="4" rx="2" fill="white" fill-opacity="0.42"/>
<rect x="182" y="196" width="4" height="4" rx="2" fill="white" fill-opacity="0.42"/>
<rect x="182" y="84" width="4" height="4" rx="2" fill="white" fill-opacity="0.42"/>
<rect x="182" y="210" width="4" height="4" rx="2" fill="white" fill-opacity="0.42"/>
<rect x="182" y="98" width="4" height="4" rx="2" fill="white" fill-opacity="0.42"/>
<rect x="196" y="140" width="4" height="4" rx="2" fill="white" fill-opacity="0.42"/>
<rect x="196" y="28" width="4" height="4" rx="2" fill="white" fill-opacity="0.42"/>
<rect x="196" y="154" width="4" height="4" rx="2" fill="white" fill-opacity="0.42"/>
<rect x="196" y="42" width="4" height="4" rx="2" fill="white" fill-opacity="0.42"/>
<rect x="196" y="168" width="4" height="4" rx="2" fill="white" fill-opacity="0.42"/>
<rect x="196" y="56" width="4" height="4" rx="2" fill="white" fill-opacity="0.42"/>
<rect x="196" y="182" width="4" height="4" rx="2" fill="white" fill-opacity="0.42"/>
<rect x="196" y="70" width="4" height="4" rx="2" fill="white" fill-opacity="0.42"/>
<rect x="196" y="196" width="4" height="4" rx="2" fill="white" fill-opacity="0.42"/>
<rect x="196" y="84" width="4" height="4" rx="2" fill="white" fill-opacity="0.42"/>
<rect x="196" y="210" width="4" height="4" rx="2" fill="white" fill-opacity="0.42"/>
<rect x="196" y="98" width="4" height="4" rx="2" fill="white" fill-opacity="0.42"/>
<rect x="210" y="140" width="4" height="4" rx="2" fill="white" fill-opacity="0.42"/>
<rect x="210" y="28" width="4" height="4" rx="2" fill="white" fill-opacity="0.42"/>
<rect x="210" y="154" width="4" height="4" rx="2" fill="white" fill-opacity="0.42"/>
<rect x="210" y="42" width="4" height="4" rx="2" fill="white" fill-opacity="0.42"/>
<rect x="210" y="168" width="4" height="4" rx="2" fill="white" fill-opacity="0.42"/>
<rect x="210" y="56" width="4" height="4" rx="2" fill="white" fill-opacity="0.42"/>
<rect x="210" y="182" width="4" height="4" rx="2" fill="white" fill-opacity="0.42"/>
<rect x="210" y="70" width="4" height="4" rx="2" fill="white" fill-opacity="0.42"/>
<rect x="210" y="196" width="4" height="4" rx="2" fill="white" fill-opacity="0.42"/>
<rect x="210" y="84" width="4" height="4" rx="2" fill="white" fill-opacity="0.42"/>
<rect x="210" y="210" width="4" height="4" rx="2" fill="white" fill-opacity="0.42"/>
<rect x="210" y="98" width="4" height="4" rx="2" fill="white" fill-opacity="0.42"/>
</svg>
