<svg width="915" height="674" viewBox="0 0 915 674" fill="none" xmlns="http://www.w3.org/2000/svg">
<g style="mix-blend-mode:screen" opacity="0.35">
<g style="mix-blend-mode:screen" opacity="0.35">
<path d="M319.63 276.84C319.294 276.842 318.959 276.879 318.63 276.95L294.41 235.04C294.906 234.504 295.276 233.863 295.492 233.164C295.707 232.466 295.763 231.728 295.655 231.006C295.547 230.283 295.279 229.593 294.869 228.988C294.459 228.383 293.918 227.878 293.287 227.51C292.656 227.142 291.95 226.92 291.222 226.861C290.493 226.802 289.761 226.908 289.079 227.17C288.396 227.432 287.782 227.844 287.28 228.375C286.778 228.907 286.403 229.544 286.18 230.24H237.58C237.226 229.129 236.486 228.181 235.494 227.568C234.502 226.956 233.323 226.718 232.171 226.9C231.019 227.081 229.97 227.669 229.214 228.557C228.458 229.445 228.045 230.574 228.05 231.74C228.051 232.949 228.508 234.113 229.33 235L205.08 276.95C204.408 276.805 203.714 276.803 203.041 276.945C202.369 277.087 201.734 277.369 201.177 277.772C200.621 278.176 200.156 278.692 199.813 279.287C199.47 279.883 199.256 280.544 199.185 281.227C199.114 281.911 199.189 282.601 199.403 283.254C199.617 283.907 199.966 284.508 200.428 285.017C200.89 285.525 201.454 285.931 202.083 286.207C202.713 286.484 203.393 286.624 204.08 286.62C204.417 286.619 204.753 286.579 205.08 286.5L229.33 328.45C228.837 328.988 228.47 329.631 228.258 330.33C228.046 331.028 227.993 331.766 228.104 332.488C228.215 333.21 228.486 333.898 228.898 334.501C229.311 335.104 229.853 335.606 230.485 335.972C231.117 336.338 231.824 336.557 232.552 336.613C233.28 336.669 234.011 336.561 234.692 336.297C235.373 336.033 235.986 335.619 236.486 335.087C236.986 334.554 237.36 333.916 237.58 333.22H286.15C286.375 333.914 286.752 334.55 287.254 335.079C287.757 335.608 288.371 336.018 289.053 336.278C289.735 336.539 290.467 336.643 291.194 336.583C291.921 336.523 292.626 336.301 293.256 335.932C293.886 335.564 294.426 335.059 294.835 334.455C295.244 333.851 295.512 333.162 295.62 332.44C295.728 331.719 295.672 330.982 295.458 330.284C295.243 329.587 294.875 328.946 294.38 328.41L318.6 286.5C318.928 286.579 319.263 286.619 319.6 286.62C320.897 286.62 322.141 286.105 323.058 285.188C323.975 284.271 324.49 283.027 324.49 281.73C324.49 280.433 323.975 279.189 323.058 278.272C322.141 277.355 320.897 276.84 319.6 276.84H319.63ZM290.79 326.84C289.758 326.843 288.753 327.173 287.92 327.781C287.086 328.39 286.467 329.248 286.15 330.23H237.58C237.267 329.247 236.649 328.39 235.817 327.781C234.985 327.171 233.981 326.842 232.95 326.84C232.614 326.842 232.279 326.879 231.95 326.95L207.7 284.95C208.524 284.062 208.982 282.896 208.982 281.685C208.982 280.474 208.524 279.308 207.7 278.42L231.95 236.47C232.278 236.544 232.614 236.584 232.95 236.59C233.983 236.587 234.988 236.256 235.82 235.645C236.652 235.034 237.268 234.174 237.58 233.19H286.15C286.466 234.183 287.092 235.049 287.936 235.661C288.78 236.273 289.798 236.598 290.84 236.59C291.176 236.588 291.511 236.555 291.84 236.49L316.08 278.42C315.256 279.308 314.799 280.474 314.799 281.685C314.799 282.896 315.256 284.062 316.08 284.95L291.84 326.89C291.51 326.834 291.175 326.813 290.84 326.83L290.79 326.84Z" fill="#0A65B9"/>
</g>
<g style="mix-blend-mode:screen" opacity="0.35">
<path d="M416.84 331.72C416.504 331.723 416.169 331.76 415.84 331.83L391.62 289.92C392.116 289.384 392.486 288.743 392.702 288.044C392.917 287.346 392.973 286.608 392.865 285.885C392.757 285.163 392.489 284.473 392.079 283.868C391.669 283.263 391.128 282.758 390.497 282.39C389.866 282.022 389.16 281.8 388.432 281.741C387.703 281.682 386.971 281.788 386.289 282.05C385.606 282.312 384.992 282.724 384.49 283.255C383.988 283.787 383.613 284.424 383.39 285.12H334.84C334.486 284.009 333.746 283.061 332.754 282.448C331.762 281.836 330.583 281.598 329.431 281.78C328.279 281.961 327.23 282.549 326.474 283.437C325.718 284.325 325.305 285.454 325.31 286.62C325.311 287.829 325.768 288.993 326.59 289.88L302.34 331.83C301.668 331.685 300.974 331.683 300.301 331.825C299.629 331.967 298.994 332.249 298.438 332.652C297.881 333.056 297.416 333.572 297.073 334.167C296.73 334.763 296.516 335.424 296.445 336.107C296.374 336.791 296.449 337.481 296.663 338.134C296.877 338.787 297.226 339.388 297.688 339.897C298.15 340.405 298.714 340.811 299.343 341.087C299.973 341.364 300.653 341.504 301.34 341.5C301.677 341.499 302.013 341.459 302.34 341.38L326.59 383.33C326.097 383.868 325.73 384.511 325.518 385.21C325.306 385.908 325.253 386.646 325.364 387.368C325.475 388.09 325.746 388.778 326.158 389.381C326.571 389.984 327.113 390.486 327.745 390.852C328.377 391.218 329.084 391.437 329.812 391.493C330.54 391.549 331.271 391.441 331.952 391.177C332.633 390.913 333.246 390.499 333.746 389.967C334.246 389.434 334.62 388.796 334.84 388.1H383.41C383.635 388.794 384.012 389.43 384.514 389.959C385.017 390.488 385.631 390.898 386.313 391.158C386.995 391.419 387.727 391.523 388.454 391.463C389.181 391.403 389.886 391.181 390.516 390.812C391.146 390.444 391.686 389.939 392.095 389.335C392.504 388.731 392.772 388.042 392.88 387.32C392.988 386.599 392.933 385.862 392.718 385.164C392.503 384.467 392.135 383.826 391.64 383.29L415.84 341.38C416.168 341.458 416.503 341.498 416.84 341.5C417.482 341.5 418.118 341.373 418.711 341.128C419.305 340.882 419.844 340.522 420.298 340.068C420.752 339.614 421.112 339.075 421.358 338.481C421.604 337.888 421.73 337.252 421.73 336.61C421.73 335.968 421.604 335.332 421.358 334.739C421.112 334.145 420.752 333.606 420.298 333.152C419.844 332.698 419.305 332.338 418.711 332.092C418.118 331.846 417.482 331.72 416.84 331.72V331.72ZM388 381.72C386.968 381.723 385.963 382.053 385.13 382.661C384.296 383.27 383.677 384.127 383.36 385.11H334.84C334.527 384.127 333.91 383.27 333.077 382.661C332.245 382.051 331.241 381.722 330.21 381.72C329.874 381.722 329.539 381.759 329.21 381.83L304.96 339.83C305.784 338.942 306.242 337.776 306.242 336.565C306.242 335.354 305.784 334.188 304.96 333.3L329.21 291.35C329.538 291.429 329.873 291.469 330.21 291.47C331.241 291.468 332.245 291.139 333.077 290.529C333.91 289.92 334.527 289.062 334.84 288.08H383.41C383.727 289.062 384.346 289.92 385.18 290.528C386.013 291.137 387.018 291.467 388.05 291.47C388.386 291.469 388.721 291.435 389.05 291.37L413.29 333.3C412.466 334.188 412.009 335.354 412.009 336.565C412.009 337.776 412.466 338.942 413.29 339.83L389.05 381.77C388.704 381.709 388.351 381.689 388 381.71V381.72Z" fill="#0A65B9"/>
</g>
<g style="mix-blend-mode:screen" opacity="0.35">
<path d="M319.63 164.11C319.294 164.112 318.959 164.149 318.63 164.22L294.41 122.31C294.906 121.774 295.276 121.133 295.492 120.434C295.707 119.736 295.763 118.998 295.655 118.276C295.547 117.553 295.279 116.863 294.869 116.258C294.459 115.653 293.918 115.148 293.287 114.78C292.656 114.412 291.95 114.19 291.221 114.131C290.493 114.072 289.761 114.178 289.079 114.44C288.396 114.702 287.782 115.114 287.28 115.645C286.778 116.177 286.402 116.814 286.18 117.51H237.58C237.226 116.399 236.486 115.451 235.494 114.838C234.502 114.226 233.323 113.988 232.171 114.17C231.019 114.351 229.97 114.939 229.214 115.827C228.458 116.715 228.045 117.844 228.05 119.01C228.051 120.219 228.508 121.383 229.33 122.27L205.08 164.22C204.367 164.066 203.628 164.074 202.918 164.242C202.208 164.411 201.545 164.737 200.977 165.195C200.409 165.653 199.951 166.233 199.637 166.891C199.322 167.55 199.159 168.27 199.159 169C199.159 169.73 199.322 170.45 199.637 171.109C199.951 171.767 200.409 172.347 200.977 172.805C201.545 173.263 202.208 173.589 202.918 173.757C203.628 173.926 204.367 173.934 205.08 173.78L229.33 215.72C228.837 216.258 228.47 216.901 228.258 217.6C228.046 218.298 227.993 219.036 228.104 219.758C228.215 220.48 228.486 221.168 228.898 221.771C229.31 222.374 229.853 222.876 230.485 223.242C231.117 223.608 231.823 223.827 232.552 223.883C233.28 223.939 234.011 223.831 234.692 223.567C235.373 223.303 235.986 222.889 236.486 222.357C236.986 221.824 237.36 221.186 237.58 220.49H286.15C286.372 221.186 286.748 221.823 287.25 222.355C287.752 222.886 288.366 223.298 289.049 223.56C289.731 223.822 290.463 223.928 291.191 223.869C291.92 223.81 292.626 223.588 293.257 223.22C293.888 222.852 294.429 222.347 294.839 221.742C295.249 221.137 295.517 220.447 295.625 219.724C295.733 219.002 295.677 218.264 295.462 217.566C295.246 216.867 294.876 216.226 294.38 215.69L318.6 173.78C319.272 173.925 319.967 173.927 320.639 173.785C321.311 173.643 321.946 173.361 322.503 172.958C323.059 172.554 323.524 172.038 323.867 171.443C324.21 170.847 324.424 170.186 324.495 169.503C324.566 168.819 324.492 168.129 324.277 167.476C324.063 166.823 323.714 166.222 323.252 165.713C322.79 165.204 322.226 164.799 321.597 164.522C320.968 164.246 320.287 164.106 319.6 164.11H319.63ZM290.79 214.11C289.758 214.113 288.753 214.443 287.92 215.051C287.086 215.66 286.467 216.518 286.15 217.5H237.58C237.267 216.517 236.649 215.66 235.817 215.051C234.985 214.441 233.981 214.112 232.95 214.11C232.614 214.112 232.279 214.149 231.95 214.22L207.7 172.27C208.524 171.382 208.982 170.216 208.982 169.005C208.982 167.794 208.524 166.628 207.7 165.74L231.95 123.8C232.279 123.871 232.614 123.908 232.95 123.91C233.981 123.908 234.985 123.579 235.817 122.969C236.649 122.36 237.267 121.502 237.58 120.52H286.15C286.467 121.502 287.086 122.36 287.92 122.968C288.753 123.577 289.758 123.907 290.79 123.91C291.126 123.908 291.461 123.875 291.79 123.81L316.03 165.74C315.206 166.628 314.749 167.794 314.749 169.005C314.749 170.216 315.206 171.382 316.03 172.27L291.79 214.21C291.478 214.14 291.16 214.103 290.84 214.1L290.79 214.11Z" fill="#0A65B9"/>
</g>
<g style="mix-blend-mode:screen" opacity="0.35">
<path d="M416.84 109.23C416.504 109.233 416.169 109.27 415.84 109.34L391.62 67.43C392.116 66.8936 392.486 66.2527 392.702 65.5544C392.917 64.8561 392.973 64.1183 392.865 63.3955C392.757 62.6727 392.489 61.9834 392.079 61.3783C391.669 60.7733 391.128 60.2681 390.497 59.8999C389.866 59.5317 389.16 59.31 388.432 59.2512C387.703 59.1923 386.971 59.2978 386.289 59.5599C385.606 59.8219 384.992 60.2338 384.49 60.7652C383.988 61.2966 383.612 61.9339 383.39 62.63H334.84C334.486 61.5188 333.746 60.571 332.754 59.9583C331.762 59.3456 330.583 59.1084 329.431 59.2897C328.279 59.471 327.23 60.0588 326.474 60.9467C325.718 61.8346 325.305 62.9638 325.31 64.13C325.311 65.3391 325.768 66.5033 326.59 67.39L302.34 109.34C301.627 109.186 300.888 109.194 300.178 109.362C299.468 109.531 298.805 109.857 298.237 110.315C297.669 110.773 297.211 111.353 296.897 112.011C296.582 112.67 296.419 113.39 296.419 114.12C296.419 114.85 296.582 115.57 296.897 116.229C297.211 116.887 297.669 117.467 298.237 117.925C298.805 118.383 299.468 118.709 300.178 118.877C300.888 119.046 301.627 119.054 302.34 118.9L326.59 160.84C326.094 161.378 325.725 162.022 325.511 162.722C325.297 163.422 325.243 164.162 325.354 164.886C325.465 165.609 325.737 166.299 326.151 166.903C326.564 167.508 327.109 168.011 327.743 168.377C328.378 168.742 329.086 168.96 329.817 169.014C330.547 169.068 331.28 168.958 331.962 168.69C332.643 168.422 333.256 168.005 333.754 167.468C334.253 166.931 334.624 166.29 334.84 165.59H383.41C383.632 166.286 384.008 166.923 384.51 167.455C385.012 167.986 385.626 168.398 386.309 168.66C386.991 168.922 387.723 169.028 388.452 168.969C389.18 168.91 389.886 168.688 390.517 168.32C391.148 167.952 391.689 167.447 392.099 166.842C392.509 166.237 392.777 165.547 392.885 164.824C392.993 164.102 392.937 163.364 392.721 162.666C392.506 161.967 392.136 161.326 391.64 160.79L415.84 118.9C416.169 118.97 416.504 119.007 416.84 119.01C418.137 119.01 419.381 118.495 420.298 117.578C421.215 116.661 421.73 115.417 421.73 114.12C421.73 112.823 421.215 111.579 420.298 110.662C419.381 109.745 418.137 109.23 416.84 109.23ZM388 159.23C386.968 159.233 385.963 159.563 385.13 160.171C384.296 160.78 383.677 161.638 383.36 162.62H334.84C334.527 161.637 333.909 160.78 333.077 160.171C332.245 159.561 331.241 159.232 330.21 159.23C329.874 159.232 329.539 159.269 329.21 159.34L304.96 117.34C305.784 116.452 306.242 115.286 306.242 114.075C306.242 112.864 305.784 111.698 304.96 110.81L329.21 68.87C329.539 68.9406 329.874 68.9775 330.21 68.98C331.241 68.9779 332.245 68.6486 333.077 68.0393C333.909 67.4301 334.527 66.5725 334.84 65.59H383.41C383.727 66.5724 384.346 67.4295 385.18 68.0384C386.013 68.6474 387.018 68.977 388.05 68.98C388.386 68.9787 388.721 68.9452 389.05 68.88L413.29 110.81C412.466 111.698 412.009 112.864 412.009 114.075C412.009 115.286 412.466 116.452 413.29 117.34L389.05 159.28C388.704 159.219 388.351 159.199 388 159.22V159.23Z" fill="#0A65B9"/>
</g>
<g style="mix-blend-mode:screen" opacity="0.35">
<path d="M514.74 276.84C514.404 276.842 514.069 276.879 513.74 276.95L489.51 235.04C490.35 234.146 490.818 232.966 490.82 231.74C490.825 230.574 490.412 229.445 489.656 228.557C488.9 227.669 487.851 227.081 486.699 226.9C485.547 226.718 484.368 226.956 483.376 227.568C482.384 228.181 481.644 229.129 481.29 230.24H432.69C432.47 229.544 432.096 228.907 431.597 228.375C431.098 227.843 430.485 227.43 429.805 227.165C429.125 226.901 428.394 226.793 427.667 226.848C426.939 226.904 426.234 227.122 425.601 227.486C424.969 227.85 424.427 228.352 424.014 228.953C423.601 229.555 423.329 230.241 423.216 230.962C423.104 231.683 423.155 232.42 423.365 233.119C423.575 233.818 423.939 234.461 424.43 235L400.19 276.95C399.861 276.88 399.526 276.843 399.19 276.84C397.893 276.84 396.649 277.355 395.732 278.272C394.815 279.189 394.3 280.433 394.3 281.73C394.3 283.027 394.815 284.271 395.732 285.188C396.649 286.105 397.893 286.62 399.19 286.62C399.527 286.618 399.862 286.578 400.19 286.5L424.43 328.45C423.94 328.989 423.577 329.632 423.368 330.33C423.159 331.028 423.109 331.764 423.221 332.484C423.334 333.203 423.606 333.889 424.018 334.49C424.43 335.091 424.972 335.592 425.603 335.956C426.233 336.321 426.938 336.539 427.665 336.596C428.391 336.652 429.121 336.545 429.801 336.283C430.48 336.02 431.093 335.609 431.593 335.079C432.093 334.549 432.468 333.914 432.69 333.22H481.26C481.483 333.917 481.859 334.555 482.361 335.086C482.863 335.618 483.479 336.03 484.162 336.292C484.845 336.554 485.578 336.659 486.307 336.6C487.036 336.54 487.742 336.317 488.374 335.948C489.005 335.578 489.545 335.072 489.954 334.465C490.363 333.859 490.631 333.168 490.737 332.445C490.843 331.721 490.786 330.983 490.568 330.284C490.35 329.586 489.979 328.945 489.48 328.41L513.71 286.5C514.038 286.579 514.373 286.619 514.71 286.62C516.007 286.62 517.251 286.105 518.168 285.188C519.085 284.271 519.6 283.027 519.6 281.73C519.6 280.433 519.085 279.189 518.168 278.272C517.251 277.355 516.007 276.84 514.71 276.84H514.74ZM485.89 326.84C484.859 326.842 483.855 327.171 483.023 327.781C482.191 328.39 481.573 329.247 481.26 330.23H432.69C432.373 329.248 431.754 328.39 430.921 327.781C430.087 327.173 429.082 326.843 428.05 326.84C427.714 326.843 427.379 326.88 427.05 326.95L402.81 284.95C403.627 284.059 404.081 282.894 404.081 281.685C404.081 280.476 403.627 279.311 402.81 278.42L427.05 236.47C427.379 236.543 427.714 236.583 428.05 236.59C429.084 236.588 430.09 236.257 430.924 235.646C431.758 235.035 432.377 234.175 432.69 233.19H481.26C481.572 234.174 482.188 235.034 483.02 235.645C483.853 236.256 484.858 236.587 485.89 236.59C486.226 236.588 486.561 236.555 486.89 236.49L511.12 278.42C510.303 279.311 509.849 280.476 509.849 281.685C509.849 282.894 510.303 284.059 511.12 284.95L486.84 326.93C486.528 326.864 486.209 326.83 485.89 326.83V326.84Z" fill="#0A65B9"/>
</g>
<g style="mix-blend-mode:screen" opacity="0.35">
<path d="M613.59 331.72C613.254 331.723 612.919 331.76 612.59 331.83L588.34 289.92C588.836 289.384 589.206 288.743 589.422 288.044C589.637 287.346 589.693 286.608 589.585 285.885C589.477 285.163 589.209 284.473 588.799 283.868C588.389 283.263 587.848 282.758 587.217 282.39C586.586 282.022 585.88 281.8 585.152 281.741C584.423 281.682 583.691 281.788 583.009 282.05C582.326 282.312 581.712 282.724 581.21 283.255C580.708 283.787 580.333 284.424 580.11 285.12H531.54C531.186 284.009 530.446 283.061 529.454 282.448C528.462 281.836 527.283 281.598 526.131 281.78C524.979 281.961 523.93 282.549 523.174 283.437C522.418 284.325 522.005 285.454 522.01 286.62C522.011 287.829 522.468 288.993 523.29 289.88L499.04 331.83C498.368 331.685 497.674 331.683 497.001 331.825C496.329 331.967 495.694 332.249 495.137 332.652C494.581 333.056 494.116 333.572 493.773 334.167C493.43 334.763 493.216 335.424 493.145 336.107C493.074 336.791 493.149 337.481 493.363 338.134C493.577 338.787 493.926 339.388 494.388 339.897C494.85 340.405 495.414 340.811 496.043 341.087C496.672 341.364 497.353 341.504 498.04 341.5C498.377 341.499 498.713 341.459 499.04 341.38L523.29 383.33C522.797 383.868 522.43 384.511 522.218 385.21C522.006 385.908 521.953 386.646 522.064 387.368C522.175 388.09 522.446 388.778 522.858 389.381C523.271 389.984 523.813 390.486 524.445 390.852C525.077 391.218 525.783 391.437 526.512 391.493C527.24 391.549 527.971 391.441 528.652 391.177C529.333 390.913 529.946 390.499 530.446 389.967C530.946 389.434 531.32 388.796 531.54 388.1H580.11C580.335 388.794 580.712 389.43 581.214 389.959C581.717 390.488 582.331 390.898 583.013 391.158C583.695 391.419 584.427 391.523 585.154 391.463C585.881 391.403 586.586 391.181 587.216 390.812C587.846 390.444 588.386 389.939 588.795 389.335C589.204 388.731 589.472 388.042 589.58 387.32C589.688 386.599 589.632 385.862 589.418 385.164C589.203 384.467 588.835 383.826 588.34 383.29L612.56 341.38C612.888 341.458 613.223 341.498 613.56 341.5C614.857 341.5 616.101 340.985 617.018 340.068C617.935 339.151 618.45 337.907 618.45 336.61C618.45 335.313 617.935 334.069 617.018 333.152C616.101 332.235 614.857 331.72 613.56 331.72H613.59ZM584.75 381.72C583.718 381.723 582.713 382.053 581.88 382.661C581.046 383.27 580.427 384.127 580.11 385.11H531.54C531.227 384.127 530.609 383.27 529.777 382.661C528.945 382.051 527.941 381.722 526.91 381.72C526.574 381.722 526.239 381.759 525.91 381.83L501.66 339.83C502.484 338.942 502.942 337.776 502.942 336.565C502.942 335.354 502.484 334.188 501.66 333.3L525.84 291.39C526.168 291.469 526.503 291.509 526.84 291.51C527.871 291.508 528.875 291.179 529.707 290.569C530.539 289.96 531.157 289.102 531.47 288.12H580.04C580.357 289.102 580.976 289.96 581.81 290.568C582.643 291.177 583.648 291.507 584.68 291.51C585.016 291.509 585.351 291.475 585.68 291.41L609.92 333.34C609.096 334.228 608.639 335.394 608.639 336.605C608.639 337.816 609.096 338.982 609.92 339.87L585.68 381.81C585.374 381.745 585.063 381.711 584.75 381.71V381.72Z" fill="#0A65B9"/>
</g>
<g style="mix-blend-mode:screen" opacity="0.35">
<path d="M712.92 499.49C712.584 499.492 712.249 499.529 711.92 499.6L687.67 457.69C688.511 456.797 688.979 455.617 688.98 454.39C688.985 453.224 688.572 452.095 687.816 451.207C687.06 450.319 686.011 449.731 684.859 449.55C683.707 449.368 682.528 449.606 681.536 450.218C680.544 450.831 679.804 451.779 679.45 452.89H630.84C630.62 452.194 630.246 451.557 629.747 451.025C629.248 450.493 628.635 450.08 627.955 449.815C627.275 449.551 626.545 449.443 625.817 449.498C625.089 449.554 624.384 449.772 623.751 450.136C623.119 450.5 622.577 451.002 622.164 451.603C621.751 452.205 621.479 452.892 621.366 453.612C621.254 454.333 621.305 455.07 621.515 455.769C621.725 456.468 622.089 457.111 622.58 457.65L598.34 499.65C598.011 499.58 597.676 499.543 597.34 499.54C596.043 499.54 594.799 500.055 593.882 500.972C592.965 501.889 592.45 503.133 592.45 504.43C592.45 505.727 592.965 506.971 593.882 507.888C594.799 508.805 596.043 509.32 597.34 509.32C597.676 509.317 598.011 509.28 598.34 509.21L622.58 551.15C622.09 551.689 621.727 552.332 621.518 553.03C621.309 553.728 621.259 554.464 621.371 555.184C621.484 555.903 621.756 556.589 622.168 557.19C622.58 557.791 623.122 558.292 623.753 558.656C624.384 559.021 625.088 559.239 625.815 559.296C626.541 559.352 627.271 559.245 627.951 558.983C628.63 558.72 629.243 558.309 629.743 557.779C630.243 557.249 630.618 556.614 630.84 555.92H679.41C679.764 557.031 680.504 557.979 681.496 558.592C682.488 559.204 683.667 559.442 684.819 559.26C685.971 559.079 687.02 558.491 687.776 557.603C688.532 556.715 688.945 555.586 688.94 554.42C688.939 553.193 688.471 552.013 687.63 551.12L711.85 509.21C712.179 509.28 712.514 509.317 712.85 509.32C714.147 509.32 715.391 508.805 716.308 507.888C717.225 506.971 717.74 505.727 717.74 504.43C717.74 503.133 717.225 501.889 716.308 500.972C715.391 500.055 714.147 499.54 712.85 499.54L712.92 499.49ZM684.08 549.49C683.049 549.492 682.045 549.821 681.213 550.431C680.381 551.04 679.763 551.897 679.45 552.88H630.84C630.523 551.898 629.904 551.04 629.071 550.432C628.237 549.823 627.232 549.493 626.2 549.49C625.864 549.493 625.529 549.53 625.2 549.6L600.96 507.6C601.777 506.709 602.231 505.544 602.231 504.335C602.231 503.126 601.777 501.961 600.96 501.07L625.2 459.13C625.529 459.2 625.864 459.237 626.2 459.24C627.227 459.24 628.228 458.916 629.061 458.315C629.894 457.713 630.517 456.865 630.84 455.89H679.41C679.723 456.872 680.341 457.73 681.173 458.339C682.005 458.949 683.009 459.278 684.04 459.28C684.376 459.278 684.711 459.245 685.04 459.18L709.27 501.11C708.453 502.001 707.999 503.166 707.999 504.375C707.999 505.584 708.453 506.749 709.27 507.64L685.07 549.59C684.745 549.518 684.413 549.481 684.08 549.48V549.49Z" fill="#0A65B9"/>
</g>
<g style="mix-blend-mode:screen" opacity="0.35">
<path d="M811.59 557.17C811.253 557.172 810.918 557.212 810.59 557.29L786.34 515.38C786.835 514.844 787.203 514.203 787.418 513.506C787.632 512.808 787.688 512.071 787.58 511.349C787.472 510.628 787.204 509.939 786.795 509.335C786.385 508.731 785.846 508.226 785.216 507.857C784.586 507.489 783.881 507.267 783.154 507.207C782.427 507.147 781.695 507.251 781.013 507.512C780.331 507.772 779.717 508.182 779.214 508.711C778.712 509.24 778.334 509.875 778.11 510.57H729.55C729.328 509.876 728.953 509.241 728.453 508.711C727.953 508.181 727.34 507.769 726.661 507.507C725.981 507.245 725.251 507.138 724.525 507.194C723.798 507.251 723.093 507.469 722.462 507.834C721.831 508.198 721.29 508.699 720.878 509.3C720.466 509.901 720.194 510.586 720.081 511.306C719.969 512.026 720.019 512.762 720.228 513.46C720.437 514.158 720.8 514.801 721.29 515.34L697.04 557.34C696.712 557.261 696.377 557.221 696.04 557.22C695.353 557.216 694.672 557.356 694.043 557.632C693.414 557.909 692.85 558.314 692.388 558.823C691.926 559.332 691.577 559.933 691.363 560.586C691.149 561.239 691.074 561.929 691.145 562.613C691.216 563.296 691.43 563.957 691.773 564.553C692.116 565.148 692.581 565.664 693.137 566.068C693.694 566.471 694.329 566.753 695.001 566.895C695.674 567.036 696.368 567.035 697.04 566.89L721.29 608.89C720.468 609.777 720.011 610.941 720.01 612.15C720.013 613.313 720.431 614.437 721.188 615.32C721.945 616.203 722.992 616.787 724.141 616.968C725.289 617.148 726.465 616.913 727.456 616.305C728.448 615.697 729.19 614.756 729.55 613.65H778.11C778.332 614.346 778.708 614.983 779.21 615.515C779.712 616.046 780.326 616.458 781.009 616.72C781.691 616.982 782.423 617.088 783.151 617.029C783.88 616.97 784.586 616.748 785.217 616.38C785.848 616.012 786.389 615.507 786.799 614.902C787.209 614.297 787.477 613.607 787.585 612.884C787.693 612.162 787.637 611.424 787.422 610.726C787.206 610.027 786.836 609.386 786.34 608.85L810.56 566.94C810.889 567.01 811.224 567.047 811.56 567.05C812.202 567.05 812.838 566.923 813.431 566.678C814.025 566.432 814.564 566.072 815.018 565.618C815.472 565.164 815.832 564.625 816.078 564.031C816.324 563.438 816.45 562.802 816.45 562.16C816.45 561.518 816.324 560.882 816.078 560.289C815.832 559.695 815.472 559.156 815.018 558.702C814.564 558.248 814.025 557.888 813.431 557.642C812.838 557.396 812.202 557.27 811.56 557.27L811.59 557.17ZM782.75 607.17C781.716 607.172 780.71 607.503 779.876 608.114C779.042 608.725 778.424 609.585 778.11 610.57H729.55C729.237 609.585 728.618 608.725 727.784 608.114C726.95 607.503 725.944 607.172 724.91 607.17C724.573 607.172 724.238 607.212 723.91 607.29L699.66 565.29C700.484 564.402 700.942 563.236 700.942 562.025C700.942 560.814 700.484 559.648 699.66 558.76L723.91 516.76C724.239 516.83 724.574 516.867 724.91 516.87C725.942 516.867 726.947 516.537 727.781 515.928C728.614 515.32 729.233 514.462 729.55 513.48H778.11C778.427 514.462 779.046 515.32 779.88 515.928C780.713 516.537 781.718 516.867 782.75 516.87C783.086 516.874 783.422 516.841 783.75 516.77L807.99 558.71C807.173 559.601 806.719 560.766 806.719 561.975C806.719 563.184 807.173 564.349 807.99 565.24L783.75 607.17C783.418 607.134 783.083 607.131 782.75 607.16V607.17Z" fill="#0A65B9"/>
</g>
<g style="mix-blend-mode:screen" opacity="0.35">
<path d="M613.59 444.45C613.254 444.453 612.919 444.49 612.59 444.56L588.34 402.65C588.836 402.114 589.206 401.473 589.421 400.774C589.637 400.076 589.693 399.338 589.585 398.616C589.477 397.893 589.209 397.203 588.799 396.598C588.389 395.993 587.848 395.488 587.217 395.12C586.586 394.752 585.88 394.53 585.151 394.471C584.423 394.412 583.691 394.518 583.009 394.78C582.326 395.042 581.712 395.454 581.21 395.985C580.708 396.517 580.332 397.154 580.11 397.85H531.54C531.322 397.152 530.949 396.512 530.45 395.978C529.951 395.443 529.338 395.027 528.657 394.761C527.976 394.496 527.243 394.386 526.514 394.441C525.785 394.497 525.077 394.715 524.444 395.081C523.81 395.446 523.267 395.949 522.854 396.553C522.442 397.157 522.17 397.845 522.059 398.568C521.948 399.291 522.001 400.03 522.214 400.729C522.427 401.429 522.795 402.072 523.29 402.61L499.04 444.59C498.322 444.425 497.576 444.423 496.857 444.586C496.138 444.749 495.466 445.072 494.889 445.531C494.312 445.99 493.847 446.573 493.527 447.237C493.207 447.901 493.04 448.628 493.04 449.365C493.04 450.102 493.207 450.829 493.527 451.493C493.847 452.157 494.312 452.74 494.889 453.199C495.466 453.658 496.138 453.981 496.857 454.144C497.576 454.307 498.322 454.305 499.04 454.14L523.29 496.14C522.468 497.031 522.011 498.198 522.01 499.41C522.008 500.575 522.422 501.703 523.179 502.589C523.936 503.475 524.985 504.061 526.136 504.241C527.287 504.421 528.465 504.183 529.456 503.57C530.447 502.958 531.186 502.01 531.54 500.9H580.11C580.332 501.596 580.708 502.233 581.21 502.765C581.712 503.296 582.326 503.708 583.009 503.97C583.691 504.232 584.423 504.338 585.151 504.279C585.88 504.22 586.586 503.998 587.217 503.63C587.848 503.262 588.389 502.757 588.799 502.152C589.209 501.547 589.477 500.857 589.585 500.134C589.693 499.412 589.637 498.674 589.421 497.976C589.206 497.277 588.836 496.636 588.34 496.1L612.56 454.19C612.888 454.264 613.223 454.304 613.56 454.31C614.857 454.31 616.101 453.795 617.018 452.878C617.935 451.961 618.45 450.717 618.45 449.42C618.45 448.123 617.935 446.879 617.018 445.962C616.101 445.045 614.857 444.53 613.56 444.53L613.59 444.45ZM584.75 494.45C583.717 494.45 582.711 494.778 581.877 495.388C581.043 495.997 580.424 496.856 580.11 497.84H531.54C531.228 496.857 530.611 495.998 529.779 495.389C528.946 494.779 527.942 494.451 526.91 494.45C526.574 494.452 526.239 494.489 525.91 494.56L501.66 452.56C502.484 451.672 502.941 450.506 502.941 449.295C502.941 448.084 502.484 446.918 501.66 446.03L525.91 404.03C526.239 404.101 526.574 404.138 526.91 404.14C527.942 404.14 528.946 403.811 529.779 403.201C530.611 402.592 531.228 401.733 531.54 400.75H580.11C580.424 401.734 581.043 402.593 581.877 403.202C582.711 403.812 583.717 404.14 584.75 404.14C585.085 404.142 585.42 404.112 585.75 404.05L609.99 445.98C609.166 446.868 608.708 448.034 608.708 449.245C608.708 450.456 609.166 451.622 609.99 452.51L585.75 494.44C585.417 494.408 585.083 494.408 584.75 494.44V494.45Z" fill="#0A65B9"/>
</g>
<g style="mix-blend-mode:screen" opacity="0.35">
<path d="M613.59 557.17C613.253 557.172 612.918 557.212 612.59 557.29L588.34 515.38C588.835 514.844 589.203 514.203 589.418 513.506C589.632 512.808 589.688 512.071 589.58 511.349C589.472 510.628 589.204 509.939 588.795 509.335C588.386 508.731 587.846 508.226 587.216 507.857C586.586 507.489 585.881 507.267 585.154 507.207C584.427 507.147 583.695 507.251 583.013 507.512C582.331 507.772 581.717 508.182 581.214 508.711C580.712 509.24 580.335 509.875 580.11 510.57H531.54C531.32 509.874 530.946 509.236 530.446 508.703C529.946 508.171 529.333 507.757 528.652 507.493C527.971 507.229 527.24 507.121 526.512 507.177C525.783 507.233 525.077 507.452 524.445 507.818C523.813 508.184 523.271 508.686 522.858 509.289C522.446 509.892 522.175 510.58 522.064 511.302C521.953 512.024 522.006 512.762 522.218 513.46C522.43 514.159 522.797 514.802 523.29 515.34L499.04 557.34C498.713 557.261 498.377 557.221 498.04 557.22C497.353 557.216 496.672 557.356 496.043 557.632C495.414 557.909 494.85 558.314 494.388 558.823C493.926 559.332 493.577 559.933 493.363 560.586C493.149 561.238 493.074 561.929 493.145 562.613C493.216 563.296 493.43 563.957 493.773 564.553C494.116 565.148 494.581 565.664 495.137 566.068C495.694 566.471 496.329 566.753 497.001 566.895C497.674 567.036 498.368 567.035 499.04 566.89L523.29 608.89C522.468 609.777 522.011 610.941 522.01 612.15C522.005 613.316 522.418 614.445 523.174 615.333C523.93 616.221 524.979 616.809 526.131 616.99C527.283 617.172 528.462 616.934 529.454 616.322C530.446 615.709 531.186 614.761 531.54 613.65H580.11C580.333 614.346 580.708 614.983 581.21 615.515C581.712 616.046 582.326 616.458 583.009 616.72C583.691 616.982 584.423 617.088 585.152 617.029C585.88 616.97 586.586 616.748 587.217 616.38C587.848 616.012 588.389 615.507 588.799 614.902C589.209 614.297 589.477 613.607 589.585 612.884C589.693 612.162 589.637 611.424 589.422 610.726C589.206 610.027 588.836 609.386 588.34 608.85L612.56 566.94C612.889 567.01 613.224 567.047 613.56 567.05C614.202 567.05 614.838 566.923 615.431 566.678C616.025 566.432 616.564 566.072 617.018 565.618C617.472 565.164 617.832 564.625 618.078 564.031C618.324 563.438 618.45 562.802 618.45 562.16C618.45 561.518 618.324 560.882 618.078 560.289C617.832 559.695 617.472 559.156 617.018 558.702C616.564 558.248 616.025 557.888 615.431 557.642C614.838 557.396 614.202 557.27 613.56 557.27L613.59 557.17ZM584.75 607.17C583.716 607.172 582.71 607.503 581.876 608.114C581.042 608.725 580.424 609.585 580.11 610.57H531.54C531.228 609.586 530.612 608.726 529.78 608.115C528.947 607.503 527.943 607.173 526.91 607.17C526.573 607.171 526.238 607.211 525.91 607.29L501.66 565.29C502.484 564.402 502.942 563.236 502.942 562.025C502.942 560.814 502.484 559.648 501.66 558.76L525.91 516.76C526.239 516.831 526.574 516.867 526.91 516.87C527.928 516.876 528.922 516.562 529.752 515.974C530.583 515.386 531.208 514.552 531.54 513.59H580.11C580.427 514.572 581.046 515.429 581.88 516.038C582.713 516.647 583.718 516.977 584.75 516.98C585.086 516.984 585.421 516.95 585.75 516.88L609.99 558.82C609.166 559.708 608.709 560.874 608.709 562.085C608.709 563.296 609.166 564.462 609.99 565.35L585.75 607.28C585.421 607.208 585.086 607.168 584.75 607.16V607.17Z" fill="#0A65B9"/>
</g>
<g style="mix-blend-mode:screen" opacity="0.35">
<path d="M122.63 389.73C122.294 389.733 121.959 389.77 121.63 389.84L97.38 347.93C97.8764 347.394 98.246 346.753 98.4615 346.054C98.677 345.356 98.7329 344.618 98.6251 343.896C98.5173 343.173 98.2486 342.483 97.8387 341.878C97.4288 341.273 96.8883 340.768 96.2571 340.4C95.6258 340.032 94.9199 339.81 94.1915 339.751C93.4631 339.692 92.7308 339.798 92.0486 340.06C91.3664 340.322 90.7518 340.734 90.2501 341.265C89.7484 341.797 89.3725 342.434 89.15 343.13H40.58C40.2666 342.148 39.6494 341.29 38.8174 340.681C37.9853 340.071 36.9813 339.742 35.95 339.74C35.307 339.739 34.6701 339.864 34.0756 340.109C33.4812 340.355 32.941 340.715 32.4858 341.169C32.0307 341.623 31.6696 342.162 31.4232 342.756C31.1768 343.35 31.05 343.987 31.05 344.63C31.0509 345.839 31.508 347.003 32.33 347.89L8.08004 389.84C7.75133 389.769 7.41625 389.732 7.08004 389.73C6.43787 389.726 5.80121 389.849 5.20641 390.091C4.61162 390.333 4.07033 390.69 3.61347 391.141C3.1566 391.592 2.7931 392.129 2.54372 392.721C2.29434 393.313 2.16396 393.948 2.16003 394.59C2.16003 395.887 2.67523 397.131 3.59228 398.048C4.50933 398.965 5.75312 399.48 7.05003 399.48C7.38689 399.479 7.72249 399.439 8.05003 399.36L32.3 441.31C31.4885 442.209 31.0426 443.379 31.05 444.59C31.05 445.233 31.1768 445.87 31.4232 446.464C31.6696 447.058 32.0307 447.597 32.4858 448.051C32.941 448.506 33.4812 448.865 34.0756 449.111C34.6701 449.356 35.307 449.481 35.95 449.48C36.9813 449.478 37.9853 449.149 38.8174 448.539C39.6494 447.93 40.2666 447.073 40.58 446.09H89.15C89.3745 446.784 89.7518 447.42 90.2542 447.949C90.7567 448.478 91.3714 448.888 92.0532 449.148C92.735 449.409 93.4665 449.513 94.1939 449.453C94.9212 449.393 95.6259 449.171 96.256 448.803C96.886 448.434 97.4255 447.929 97.8346 447.325C98.2438 446.721 98.5121 446.032 98.62 445.311C98.7278 444.589 98.6724 443.852 98.4578 443.154C98.2433 442.457 97.8749 441.816 97.38 441.28L121.6 399.39C121.928 399.468 122.263 399.508 122.6 399.51C123.897 399.51 125.141 398.995 126.058 398.078C126.975 397.161 127.49 395.917 127.49 394.62C127.49 393.323 126.975 392.079 126.058 391.162C125.141 390.245 123.897 389.73 122.6 389.73H122.63ZM93.84 439.72C92.8078 439.723 91.803 440.053 90.9695 440.662C90.1361 441.27 89.5167 442.128 89.2 443.11H40.58C40.2666 442.128 39.6494 441.27 38.8174 440.661C37.9853 440.051 36.9813 439.722 35.95 439.72C35.6138 439.722 35.2787 439.759 34.95 439.83L10.7 397.88C11.5182 396.981 11.9649 395.805 11.95 394.59C11.9468 393.378 11.4902 392.212 10.67 391.32L34.92 349.37C35.2476 349.449 35.5832 349.489 35.92 349.49C36.9513 349.488 37.9553 349.159 38.7874 348.549C39.6194 347.94 40.2366 347.083 40.55 346.1H89.15C89.464 347.096 90.0887 347.966 90.9327 348.581C91.7767 349.197 92.7955 349.526 93.84 349.52C94.1758 349.519 94.5107 349.485 94.84 349.42L119.08 391.35C118.256 392.238 117.799 393.404 117.799 394.615C117.799 395.826 118.256 396.992 119.08 397.88L94.77 439.82C94.4643 439.755 94.1527 439.721 93.84 439.72V439.72Z" fill="#0A65B9"/>
</g>
<g style="mix-blend-mode:screen" opacity="0.35">
<path d="M514.74 389.73C514.404 389.732 514.069 389.769 513.74 389.84L489.51 347.93C490.368 347.03 490.844 345.833 490.84 344.59C490.845 343.424 490.432 342.295 489.676 341.407C488.92 340.519 487.871 339.931 486.719 339.75C485.567 339.568 484.388 339.806 483.396 340.418C482.404 341.031 481.664 341.979 481.31 343.09H432.69C432.47 342.394 432.096 341.757 431.597 341.225C431.098 340.693 430.485 340.28 429.805 340.015C429.125 339.751 428.394 339.643 427.667 339.698C426.939 339.754 426.234 339.972 425.601 340.336C424.969 340.7 424.427 341.202 424.014 341.803C423.601 342.405 423.329 343.091 423.216 343.812C423.104 344.533 423.155 345.27 423.365 345.969C423.575 346.668 423.939 347.31 424.43 347.85L400.19 389.8C399.861 389.73 399.526 389.693 399.19 389.69C397.893 389.69 396.649 390.205 395.732 391.122C394.815 392.039 394.3 393.283 394.3 394.58C394.3 395.877 394.815 397.121 395.732 398.038C396.649 398.955 397.893 399.47 399.19 399.47C399.527 399.468 399.862 399.428 400.19 399.35L424.43 441.3C423.94 441.839 423.577 442.482 423.368 443.18C423.159 443.878 423.109 444.614 423.221 445.334C423.334 446.053 423.606 446.739 424.018 447.34C424.43 447.941 424.972 448.442 425.603 448.806C426.233 449.171 426.938 449.389 427.665 449.446C428.391 449.502 429.121 449.395 429.801 449.133C430.48 448.87 431.093 448.459 431.593 447.929C432.093 447.399 432.468 446.764 432.69 446.07H481.26C481.483 446.767 481.859 447.405 482.361 447.936C482.863 448.468 483.479 448.88 484.162 449.142C484.845 449.404 485.578 449.509 486.307 449.449C487.036 449.39 487.742 449.167 488.374 448.798C489.005 448.428 489.545 447.922 489.954 447.315C490.363 446.709 490.631 446.018 490.737 445.295C490.843 444.571 490.786 443.832 490.568 443.134C490.35 442.436 489.979 441.795 489.48 441.26L513.71 399.35C514.038 399.429 514.373 399.469 514.71 399.47C516.007 399.47 517.251 398.955 518.168 398.038C519.085 397.121 519.6 395.877 519.6 394.58C519.6 393.283 519.085 392.039 518.168 391.122C517.251 390.205 516.007 389.69 514.71 389.69L514.74 389.73ZM485.89 439.73C484.859 439.732 483.855 440.061 483.023 440.671C482.191 441.28 481.573 442.137 481.26 443.12H432.69C432.373 442.138 431.754 441.28 430.921 440.671C430.087 440.063 429.082 439.733 428.05 439.73C427.714 439.733 427.379 439.77 427.05 439.84L402.81 397.89C403.627 396.999 404.081 395.834 404.081 394.625C404.081 393.416 403.627 392.251 402.81 391.36L427.05 349.41C427.378 349.488 427.713 349.528 428.05 349.53C429.082 349.527 430.087 349.197 430.921 348.588C431.754 347.979 432.373 347.122 432.69 346.14H481.26C481.573 347.122 482.191 347.98 483.023 348.589C483.855 349.199 484.859 349.528 485.89 349.53C486.226 349.528 486.561 349.495 486.89 349.43L511.12 391.36C510.303 392.251 509.849 393.416 509.849 394.625C509.849 395.834 510.303 396.999 511.12 397.89L486.84 439.82C486.528 439.754 486.209 439.72 485.89 439.72V439.73Z" fill="#0A65B9"/>
</g>
<g style="mix-blend-mode:screen" opacity="0.35">
<path d="M416.84 444.59C416.504 444.593 416.169 444.63 415.84 444.7L391.62 402.79C392.116 402.254 392.486 401.613 392.702 400.914C392.917 400.216 392.973 399.478 392.865 398.756C392.757 398.033 392.489 397.343 392.079 396.738C391.669 396.133 391.128 395.628 390.497 395.26C389.866 394.892 389.16 394.67 388.432 394.611C387.703 394.552 386.971 394.658 386.289 394.92C385.606 395.182 384.992 395.594 384.49 396.125C383.988 396.657 383.612 397.294 383.39 397.99H334.84C334.486 396.879 333.746 395.931 332.754 395.318C331.762 394.706 330.583 394.468 329.431 394.65C328.279 394.831 327.23 395.419 326.474 396.307C325.718 397.195 325.305 398.324 325.31 399.49C325.311 400.699 325.768 401.863 326.59 402.75L302.34 444.75C301.627 444.596 300.888 444.604 300.178 444.772C299.468 444.941 298.805 445.267 298.237 445.725C297.669 446.183 297.211 446.763 296.897 447.421C296.582 448.08 296.419 448.8 296.419 449.53C296.419 450.26 296.582 450.98 296.897 451.639C297.211 452.297 297.669 452.877 298.237 453.335C298.805 453.793 299.468 454.119 300.178 454.287C300.888 454.456 301.627 454.464 302.34 454.31L326.59 496.25C326.092 496.788 325.722 497.432 325.508 498.133C325.293 498.834 325.239 499.575 325.349 500.299C325.46 501.024 325.733 501.715 326.147 502.32C326.561 502.925 327.107 503.429 327.742 503.794C328.378 504.159 329.088 504.377 329.819 504.43C330.551 504.483 331.285 504.371 331.966 504.101C332.648 503.832 333.261 503.412 333.758 502.874C334.256 502.335 334.626 501.691 334.84 500.99H383.41C383.634 501.684 384.012 502.32 384.514 502.849C385.017 503.378 385.631 503.788 386.313 504.048C386.995 504.309 387.727 504.413 388.454 504.353C389.181 504.293 389.886 504.071 390.516 503.703C391.146 503.334 391.686 502.829 392.095 502.225C392.504 501.621 392.772 500.932 392.88 500.211C392.988 499.489 392.932 498.752 392.718 498.054C392.503 497.357 392.135 496.716 391.64 496.18L415.84 454.28C416.169 454.35 416.504 454.387 416.84 454.39C418.137 454.39 419.381 453.875 420.298 452.958C421.215 452.041 421.73 450.797 421.73 449.5C421.73 448.203 421.215 446.959 420.298 446.042C419.381 445.125 418.137 444.61 416.84 444.61V444.59ZM388 494.59C386.968 494.593 385.963 494.923 385.13 495.531C384.296 496.14 383.677 496.998 383.36 497.98H334.84C334.527 496.997 333.909 496.14 333.077 495.531C332.245 494.921 331.241 494.592 330.21 494.59C329.874 494.592 329.539 494.629 329.21 494.7L304.96 452.7C305.784 451.812 306.242 450.646 306.242 449.435C306.242 448.224 305.784 447.058 304.96 446.17L329.21 404.22C329.538 404.299 329.873 404.339 330.21 404.34C331.241 404.338 332.245 404.009 333.077 403.399C333.909 402.79 334.527 401.932 334.84 400.95H383.41C383.727 401.932 384.346 402.789 385.18 403.398C386.013 404.007 387.018 404.337 388.05 404.34C388.386 404.339 388.721 404.305 389.05 404.24L413.29 446.17C412.466 447.058 412.009 448.224 412.009 449.435C412.009 450.646 412.466 451.812 413.29 452.7L389.05 494.64C388.703 494.583 388.351 494.566 388 494.59V494.59Z" fill="#0A65B9"/>
</g>
<g style="mix-blend-mode:screen" opacity="0.35">
<path d="M319.63 389.73C319.294 389.732 318.959 389.769 318.63 389.84L294.41 347.93C294.906 347.394 295.276 346.753 295.492 346.054C295.707 345.356 295.763 344.618 295.655 343.896C295.547 343.173 295.279 342.483 294.869 341.878C294.459 341.273 293.918 340.768 293.287 340.4C292.656 340.032 291.95 339.81 291.222 339.751C290.493 339.692 289.761 339.798 289.079 340.06C288.396 340.322 287.782 340.734 287.28 341.265C286.778 341.797 286.403 342.434 286.18 343.13H237.58C237.226 342.019 236.486 341.071 235.494 340.458C234.502 339.846 233.323 339.608 232.171 339.79C231.019 339.971 229.97 340.559 229.214 341.447C228.458 342.335 228.045 343.464 228.05 344.63C228.051 345.839 228.508 347.003 229.33 347.89L205.08 389.84C204.408 389.695 203.714 389.693 203.041 389.835C202.369 389.977 201.734 390.259 201.177 390.662C200.621 391.066 200.156 391.582 199.813 392.177C199.47 392.773 199.256 393.434 199.185 394.117C199.114 394.801 199.189 395.491 199.403 396.144C199.617 396.797 199.966 397.398 200.428 397.907C200.89 398.415 201.454 398.821 202.083 399.098C202.713 399.374 203.393 399.514 204.08 399.51C204.417 399.509 204.753 399.469 205.08 399.39L229.33 441.34C228.837 441.878 228.47 442.521 228.258 443.22C228.046 443.918 227.993 444.656 228.104 445.378C228.215 446.1 228.486 446.788 228.898 447.391C229.311 447.994 229.853 448.496 230.485 448.862C231.117 449.228 231.824 449.447 232.552 449.503C233.28 449.559 234.011 449.451 234.692 449.187C235.373 448.923 235.986 448.509 236.486 447.977C236.986 447.444 237.36 446.806 237.58 446.11H286.15C286.375 446.804 286.752 447.44 287.254 447.969C287.757 448.498 288.371 448.908 289.053 449.168C289.735 449.429 290.467 449.533 291.194 449.473C291.921 449.413 292.626 449.191 293.256 448.823C293.886 448.454 294.426 447.949 294.835 447.345C295.244 446.741 295.512 446.052 295.62 445.331C295.728 444.609 295.672 443.872 295.458 443.174C295.243 442.477 294.875 441.836 294.38 441.3L318.6 399.39C318.928 399.469 319.263 399.509 319.6 399.51C320.897 399.51 322.141 398.995 323.058 398.078C323.975 397.161 324.49 395.917 324.49 394.62C324.49 393.323 323.975 392.079 323.058 391.162C322.141 390.245 320.897 389.73 319.6 389.73H319.63ZM290.79 439.73C289.758 439.733 288.753 440.063 287.92 440.672C287.086 441.28 286.467 442.138 286.15 443.12H237.58C237.267 442.138 236.649 441.28 235.817 440.671C234.985 440.061 233.981 439.732 232.95 439.73C232.614 439.732 232.279 439.769 231.95 439.84L207.7 397.89C208.524 397.002 208.982 395.836 208.982 394.625C208.982 393.414 208.524 392.248 207.7 391.36L231.95 349.41C232.278 349.489 232.613 349.529 232.95 349.53C233.981 349.528 234.985 349.199 235.817 348.589C236.649 347.98 237.267 347.122 237.58 346.14H286.15C286.467 347.122 287.086 347.98 287.92 348.588C288.753 349.197 289.758 349.527 290.79 349.53C291.126 349.528 291.461 349.495 291.79 349.43L316.03 391.36C315.206 392.248 314.749 393.414 314.749 394.625C314.749 395.836 315.206 397.002 316.03 397.89L291.79 439.83C291.478 439.76 291.16 439.723 290.84 439.72L290.79 439.73Z" fill="#0A65B9"/>
</g>
<g style="mix-blend-mode:screen" opacity="0.35">
<path d="M219.84 331.72C219.504 331.723 219.169 331.76 218.84 331.83L194.62 289.92C195.116 289.384 195.486 288.743 195.701 288.044C195.917 287.346 195.973 286.608 195.865 285.886C195.757 285.163 195.489 284.473 195.079 283.868C194.669 283.263 194.128 282.758 193.497 282.39C192.866 282.022 192.16 281.8 191.431 281.741C190.703 281.682 189.971 281.788 189.289 282.05C188.606 282.312 187.992 282.724 187.49 283.255C186.988 283.787 186.612 284.424 186.39 285.12H137.84C137.48 284.014 136.738 283.073 135.746 282.465C134.755 281.857 133.579 281.622 132.43 281.802C131.282 281.983 130.235 282.567 129.478 283.45C128.721 284.333 128.303 285.457 128.3 286.62C128.301 287.829 128.758 288.993 129.58 289.88L105.32 331.83C104.648 331.685 103.954 331.683 103.281 331.825C102.609 331.967 101.974 332.249 101.417 332.652C100.861 333.056 100.396 333.572 100.053 334.167C99.7097 334.763 99.4957 335.424 99.425 336.107C99.3544 336.791 99.4285 337.481 99.6427 338.134C99.857 338.787 100.206 339.388 100.668 339.897C101.13 340.405 101.694 340.811 102.323 341.088C102.952 341.364 103.633 341.504 104.32 341.5C104.657 341.498 104.992 341.458 105.32 341.38L129.56 383.33C128.746 384.221 128.293 385.383 128.29 386.59C128.293 387.753 128.711 388.877 129.468 389.76C130.225 390.643 131.272 391.227 132.42 391.408C133.569 391.588 134.745 391.353 135.736 390.745C136.728 390.137 137.47 389.196 137.83 388.09H186.39C186.614 388.784 186.992 389.42 187.494 389.949C187.997 390.478 188.611 390.888 189.293 391.148C189.975 391.409 190.707 391.513 191.434 391.453C192.161 391.393 192.866 391.171 193.496 390.803C194.126 390.434 194.665 389.929 195.075 389.325C195.484 388.721 195.752 388.032 195.86 387.311C195.968 386.589 195.912 385.852 195.698 385.154C195.483 384.457 195.115 383.816 194.62 383.28L218.84 341.38C219.168 341.458 219.503 341.498 219.84 341.5C220.482 341.5 221.118 341.374 221.711 341.128C222.305 340.882 222.844 340.522 223.298 340.068C223.752 339.614 224.112 339.075 224.358 338.481C224.604 337.888 224.73 337.252 224.73 336.61C224.73 335.968 224.604 335.332 224.358 334.739C224.112 334.145 223.752 333.606 223.298 333.152C222.844 332.698 222.305 332.338 221.711 332.092C221.118 331.846 220.482 331.72 219.84 331.72V331.72ZM191 381.72C189.968 381.723 188.963 382.053 188.13 382.662C187.296 383.27 186.677 384.128 186.36 385.11H137.84C137.523 384.128 136.904 383.27 136.071 382.662C135.237 382.053 134.232 381.723 133.2 381.72C132.864 381.723 132.529 381.76 132.2 381.83L107.96 339.83C108.777 338.939 109.231 337.774 109.231 336.565C109.231 335.356 108.777 334.191 107.96 333.3L132.16 291.39C132.488 291.468 132.823 291.508 133.16 291.51C134.199 291.515 135.213 291.19 136.054 290.58C136.896 289.971 137.521 289.109 137.84 288.12H186.4C186.717 289.102 187.336 289.96 188.17 290.568C189.003 291.177 190.008 291.507 191.04 291.51C191.376 291.509 191.711 291.476 192.04 291.41L216.28 333.34C215.463 334.231 215.009 335.396 215.009 336.605C215.009 337.814 215.463 338.979 216.28 339.87L192.04 381.81C191.708 381.738 191.369 381.705 191.03 381.71L191 381.72Z" fill="#0A65B9"/>
</g>
<g style="mix-blend-mode:screen" opacity="0.35">
<path d="M909.74 499.49C909.404 499.492 909.069 499.529 908.74 499.6L884.48 457.69C885.321 456.797 885.789 455.617 885.79 454.39C885.795 453.224 885.382 452.095 884.626 451.207C883.87 450.319 882.821 449.731 881.669 449.55C880.517 449.368 879.338 449.606 878.346 450.218C877.354 450.831 876.614 451.779 876.26 452.89H827.69C827.47 452.194 827.096 451.557 826.597 451.025C826.098 450.493 825.485 450.08 824.805 449.815C824.125 449.551 823.394 449.443 822.667 449.498C821.939 449.554 821.234 449.772 820.601 450.136C819.969 450.5 819.427 451.002 819.014 451.603C818.601 452.205 818.329 452.892 818.216 453.612C818.104 454.333 818.155 455.07 818.365 455.769C818.575 456.468 818.939 457.111 819.43 457.65L795.19 499.65C794.861 499.58 794.526 499.543 794.19 499.54C792.893 499.54 791.649 500.055 790.732 500.972C789.815 501.889 789.3 503.133 789.3 504.43C789.3 505.727 789.815 506.971 790.732 507.888C791.649 508.805 792.893 509.32 794.19 509.32C794.526 509.317 794.861 509.28 795.19 509.21L819.43 551.15C818.94 551.689 818.577 552.332 818.368 553.03C818.159 553.728 818.109 554.464 818.221 555.184C818.334 555.903 818.606 556.589 819.018 557.19C819.43 557.791 819.971 558.292 820.602 558.656C821.233 559.021 821.938 559.239 822.664 559.296C823.391 559.352 824.121 559.245 824.801 558.983C825.48 558.72 826.093 558.309 826.593 557.779C827.093 557.249 827.468 556.614 827.69 555.92H876.26C876.614 557.031 877.354 557.979 878.346 558.592C879.338 559.204 880.517 559.442 881.669 559.26C882.821 559.079 883.87 558.491 884.626 557.603C885.382 556.715 885.795 555.586 885.79 554.42C885.789 553.193 885.321 552.013 884.48 551.12L908.71 509.21C909.382 509.355 910.077 509.357 910.749 509.215C911.421 509.073 912.056 508.791 912.613 508.388C913.169 507.984 913.634 507.468 913.977 506.873C914.32 506.277 914.534 505.616 914.605 504.933C914.676 504.249 914.601 503.559 914.387 502.906C914.173 502.253 913.824 501.652 913.362 501.143C912.9 500.634 912.336 500.229 911.707 499.952C911.078 499.676 910.397 499.536 909.71 499.54L909.74 499.49ZM880.89 549.49C879.859 549.492 878.855 549.821 878.023 550.431C877.191 551.04 876.573 551.897 876.26 552.88H827.69C827.373 551.898 826.754 551.04 825.921 550.432C825.087 549.823 824.082 549.493 823.05 549.49C822.714 549.493 822.379 549.53 822.05 549.6L797.81 507.6C798.627 506.709 799.081 505.544 799.081 504.335C799.081 503.126 798.627 501.961 797.81 501.07L822.05 459.13C822.379 459.2 822.714 459.237 823.05 459.24C824.082 459.237 825.087 458.907 825.921 458.298C826.754 457.69 827.373 456.832 827.69 455.85H876.26C876.573 456.832 877.191 457.69 878.023 458.299C878.855 458.909 879.859 459.238 880.89 459.24C881.226 459.238 881.561 459.205 881.89 459.14L906.13 501.07C905.306 501.958 904.849 503.124 904.849 504.335C904.849 505.546 905.306 506.712 906.13 507.6L881.84 549.59C881.528 549.521 881.21 549.484 880.89 549.48V549.49Z" fill="#0A65B9"/>
</g>
</g>
<g opacity="0.45">
<g style="mix-blend-mode:multiply" opacity="0.75">
<path d="M703 283.16H644.67L615.5 333.62L644.67 384.08H703L732.17 333.62L703 283.16Z" fill="#1D92FF"/>
</g>
<g style="mix-blend-mode:multiply" opacity="0.75">
<path d="M133.34 500.11H75.01L45.85 550.57L75.01 601.03H133.34L162.51 550.57L133.34 500.11Z" fill="#1D92FF"/>
</g>
<g style="mix-blend-mode:multiply" opacity="0.45">
<path d="M607.43 229.32H549.1L519.93 279.78L549.1 330.24H607.43L636.59 279.78L607.43 229.32Z" fill="#1D92FF"/>
</g>
<g style="mix-blend-mode:multiply" opacity="0.45">
<path d="M703 393.6H644.67L615.5 444.06L644.67 494.52H703L732.17 444.06L703 393.6Z" fill="#1D92FF"/>
</g>
<g style="mix-blend-mode:multiply" opacity="0.45">
<path d="M512.31 391.3H453.98L424.81 441.76L453.98 492.22H512.31L541.47 441.76L512.31 391.3Z" fill="#1D92FF"/>
</g>
<g style="mix-blend-mode:multiply" opacity="0.25">
<path d="M510.8 64.8H452.47L423.3 115.26L452.47 165.72H510.8L539.96 115.26L510.8 64.8Z" fill="#1D92FF"/>
</g>
<g style="mix-blend-mode:multiply" opacity="0.25">
<path d="M227.45 120.6H169.12L139.96 171.06L169.12 221.52H227.45L256.62 171.06L227.45 120.6Z" fill="#1D92FF"/>
</g>
<g style="mix-blend-mode:multiply" opacity="0.25">
<path d="M799.63 338.04H741.3L712.13 388.5L741.3 438.96H799.63L828.8 388.5L799.63 338.04Z" fill="#1D92FF"/>
</g>
<g style="mix-blend-mode:multiply" opacity="0.25">
<path d="M419.56 550.57H361.23L332.06 601.03L361.23 651.49H419.56L448.72 601.03L419.56 550.57Z" fill="#1D92FF"/>
</g>
<g style="mix-blend-mode:multiply" opacity="0.25">
<path d="M227.95 446.76H169.62L140.46 497.22L169.62 547.68H227.95L257.12 497.22L227.95 446.76Z" fill="#1D92FF"/>
</g>
<g style="mix-blend-mode:multiply" opacity="0.25">
<path d="M415.69 229.32H357.36L328.19 279.78L357.36 330.24H415.69L444.86 279.78L415.69 229.32Z" fill="#1D92FF"/>
</g>
<g style="mix-blend-mode:multiply" opacity="0.25">
<path d="M511.31 173.52H452.98L423.81 223.98L452.98 274.44H511.31L540.47 223.98L511.31 173.52Z" fill="#1D92FF"/>
</g>
<g style="mix-blend-mode:multiply" opacity="0.25">
<path d="M607.43 338.04H549.1L519.93 388.5L549.1 438.96H607.43L636.59 388.5L607.43 338.04Z" fill="#1D92FF"/>
</g>
<g style="mix-blend-mode:multiply" opacity="0.25">
<path d="M133.84 282.16H75.5L46.34 332.62L75.5 383.08H133.84L163 332.62L133.84 282.16Z" fill="#1D92FF"/>
</g>
<g style="mix-blend-mode:multiply" opacity="0.75">
<path d="M415.69 120.6H357.36L328.19 171.06L357.36 221.52H415.69L444.86 171.06L415.69 120.6Z" fill="#1D92FF"/>
</g>
<g style="mix-blend-mode:multiply" opacity="0.75">
<path d="M510.8 282.16H452.47L423.3 332.62L452.47 383.08H510.8L539.96 332.62L510.8 282.16Z" fill="#1D92FF"/>
</g>
<g style="mix-blend-mode:multiply" opacity="0.75">
<path d="M133.34 174.52H75.01L45.85 224.98L75.01 275.44H133.34L162.51 224.98L133.34 174.52Z" fill="#1D92FF"/>
</g>
<g style="mix-blend-mode:multiply" opacity="0.75">
<path d="M322.07 501.56H263.74L234.57 552.02L263.74 602.48H322.07L351.24 552.02L322.07 501.56Z" fill="#1D92FF"/>
</g>
<g style="mix-blend-mode:multiply" opacity="0.75">
<path d="M227.95 338.04H169.62L140.46 388.5L169.62 438.96H227.95L257.12 388.5L227.95 338.04Z" fill="#1D92FF"/>
</g>
<g style="mix-blend-mode:multiply" opacity="0.45">
<path d="M321.57 174.52H263.24L234.07 224.98L263.24 275.44H321.57L350.74 224.98L321.57 174.52Z" fill="#1D92FF"/>
</g>
<g style="mix-blend-mode:multiply" opacity="0.45">
<path d="M227.95 229.32H169.62L140.46 279.78L169.62 330.24H227.95L257.12 279.78L227.95 229.32Z" fill="#1D92FF"/>
</g>
<g style="mix-blend-mode:multiply" opacity="0.45">
<path d="M133.34 389.8H75.01L45.85 440.26L75.01 490.72H133.34L162.51 440.26L133.34 389.8Z" fill="#1D92FF"/>
</g>
<g style="mix-blend-mode:multiply" opacity="0.45">
<path d="M227.45 555.48H169.12L139.96 605.94L169.12 656.4H227.45L256.62 605.94L227.45 555.48Z" fill="#1D92FF"/>
</g>
<g style="mix-blend-mode:multiply" opacity="0.45">
<path d="M415.69 338.04H357.36L328.19 388.5L357.36 438.96H415.69L444.86 388.5L415.69 338.04Z" fill="#1D92FF"/>
</g>
</g>
<g style="mix-blend-mode:multiply">
<g style="mix-blend-mode:screen">
<path d="M221.07 558.4C220.734 558.407 220.399 558.447 220.07 558.52L195.84 516.59C196.681 515.693 197.15 514.51 197.15 513.28C197.152 512.115 196.738 510.987 195.981 510.101C195.224 509.215 194.175 508.629 193.024 508.449C191.873 508.269 190.695 508.507 189.704 509.12C188.713 509.732 187.974 510.68 187.62 511.79H139.03C138.802 511.101 138.422 510.472 137.92 509.948C137.418 509.425 136.805 509.02 136.127 508.763C135.448 508.506 134.721 508.403 133.998 508.463C133.274 508.522 132.574 508.742 131.946 509.107C131.319 509.472 130.781 509.972 130.371 510.57C129.961 511.169 129.69 511.852 129.577 512.569C129.465 513.285 129.513 514.018 129.72 514.714C129.926 515.41 130.285 516.05 130.77 516.59L106.53 558.52C106.201 558.447 105.866 558.407 105.53 558.4C104.869 558.37 104.208 558.474 103.588 558.707C102.968 558.939 102.402 559.295 101.923 559.753C101.444 560.21 101.063 560.76 100.803 561.369C100.543 561.978 100.409 562.633 100.409 563.295C100.409 563.957 100.543 564.612 100.803 565.221C101.063 565.83 101.444 566.38 101.923 566.837C102.402 567.295 102.968 567.65 103.588 567.883C104.208 568.115 104.869 568.22 105.53 568.19C105.866 568.183 106.201 568.143 106.53 568.07L130.77 610.02C130.279 610.559 129.915 611.202 129.705 611.901C129.495 612.6 129.444 613.337 129.556 614.057C129.669 614.778 129.941 615.465 130.354 616.067C130.767 616.668 131.309 617.17 131.941 617.534C132.574 617.898 133.279 618.116 134.007 618.172C134.734 618.227 135.465 618.119 136.145 617.855C136.825 617.59 137.438 617.177 137.937 616.645C138.436 616.113 138.81 615.475 139.03 614.78H187.6C187.82 615.478 188.195 616.118 188.697 616.652C189.198 617.186 189.814 617.6 190.497 617.864C191.18 618.127 191.914 618.234 192.644 618.175C193.374 618.117 194.082 617.894 194.714 617.525C195.347 617.156 195.888 616.649 196.298 616.042C196.708 615.435 196.976 614.743 197.082 614.018C197.188 613.294 197.13 612.554 196.911 611.855C196.693 611.156 196.32 610.515 195.82 609.98L220.04 568.07C220.369 568.143 220.704 568.183 221.04 568.19C221.701 568.22 222.362 568.115 222.982 567.883C223.602 567.65 224.168 567.295 224.647 566.837C225.126 566.38 225.507 565.83 225.767 565.221C226.027 564.612 226.161 563.957 226.161 563.295C226.161 562.633 226.027 561.978 225.767 561.369C225.507 560.76 225.126 560.21 224.647 559.753C224.168 559.295 223.602 558.939 222.982 558.707C222.362 558.474 221.701 558.37 221.04 558.4H221.07ZM192.23 608.4C191.198 608.4 190.194 608.729 189.361 609.339C188.529 609.948 187.912 610.807 187.6 611.79H139.03C138.716 610.806 138.097 609.947 137.263 609.338C136.429 608.728 135.423 608.4 134.39 608.4C134.054 608.403 133.719 608.44 133.39 608.51L109.12 566.59C109.937 565.699 110.391 564.534 110.391 563.325C110.391 562.116 109.937 560.951 109.12 560.06L133.36 518.06C133.689 518.13 134.024 518.166 134.36 518.17C135.393 518.17 136.399 517.842 137.233 517.232C138.067 516.623 138.686 515.764 139 514.78H187.57C187.882 515.763 188.499 516.622 189.331 517.231C190.164 517.841 191.168 518.169 192.2 518.17C192.535 518.171 192.87 518.141 193.2 518.08L217.43 560.01C216.613 560.901 216.159 562.066 216.159 563.275C216.159 564.484 216.613 565.649 217.43 566.54L193.22 608.49C192.894 608.429 192.562 608.399 192.23 608.4V608.4Z" fill="#59595B"/>
</g>
<g style="mix-blend-mode:screen">
<path d="M318.29 613.29C317.954 613.292 317.619 613.329 317.29 613.4L293.03 571.49C293.87 570.596 294.338 569.416 294.34 568.19C294.345 567.024 293.932 565.895 293.176 565.007C292.42 564.119 291.371 563.531 290.219 563.35C289.067 563.168 287.888 563.406 286.896 564.018C285.904 564.631 285.164 565.579 284.81 566.69H236.24C236.02 565.994 235.646 565.357 235.147 564.825C234.648 564.293 234.035 563.88 233.355 563.615C232.675 563.351 231.944 563.243 231.217 563.298C230.489 563.354 229.784 563.572 229.151 563.936C228.519 564.3 227.977 564.802 227.564 565.403C227.151 566.005 226.879 566.692 226.766 567.412C226.654 568.133 226.705 568.87 226.915 569.569C227.125 570.268 227.489 570.911 227.98 571.45L203.74 613.4C203.411 613.33 203.076 613.293 202.74 613.29C202.098 613.29 201.462 613.416 200.869 613.662C200.275 613.908 199.736 614.268 199.282 614.722C198.828 615.176 198.468 615.715 198.222 616.309C197.976 616.902 197.85 617.538 197.85 618.18C197.85 618.822 197.976 619.458 198.222 620.051C198.468 620.645 198.828 621.184 199.282 621.638C199.736 622.092 200.275 622.452 200.869 622.698C201.462 622.944 202.098 623.07 202.74 623.07C203.076 623.064 203.412 623.024 203.74 622.95L227.98 664.9C227.489 665.439 227.125 666.082 226.915 666.781C226.705 667.48 226.654 668.217 226.766 668.938C226.879 669.658 227.151 670.345 227.564 670.947C227.977 671.548 228.519 672.05 229.151 672.414C229.784 672.778 230.489 672.996 231.217 673.052C231.944 673.107 232.675 672.999 233.355 672.735C234.035 672.47 234.648 672.057 235.147 671.525C235.646 670.993 236.02 670.356 236.24 669.66H284.84C285.06 670.358 285.435 670.998 285.937 671.532C286.438 672.066 287.054 672.48 287.737 672.744C288.42 673.007 289.154 673.114 289.884 673.055C290.614 672.997 291.322 672.774 291.954 672.405C292.587 672.036 293.128 671.529 293.538 670.922C293.948 670.315 294.216 669.623 294.322 668.898C294.428 668.174 294.37 667.434 294.151 666.735C293.933 666.036 293.56 665.395 293.06 664.86L317.29 622.95C317.964 623.102 318.662 623.109 319.339 622.971C320.016 622.833 320.657 622.554 321.218 622.15C321.779 621.747 322.248 621.23 322.595 620.632C322.941 620.034 323.157 619.37 323.228 618.683C323.299 617.996 323.224 617.301 323.007 616.645C322.79 615.989 322.437 615.387 321.971 614.877C321.504 614.368 320.935 613.963 320.3 613.689C319.666 613.416 318.981 613.28 318.29 613.29V613.29ZM289.44 663.29C288.408 663.291 287.404 663.619 286.571 664.229C285.739 664.838 285.122 665.697 284.81 666.68H236.24C235.926 665.696 235.307 664.837 234.473 664.228C233.639 663.618 232.633 663.29 231.6 663.29C231.264 663.293 230.929 663.33 230.6 663.4L206.36 621.45C207.184 620.562 207.641 619.396 207.641 618.185C207.641 616.974 207.184 615.808 206.36 614.92L230.6 572.92C230.929 572.993 231.263 573.033 231.6 573.04C232.634 573.038 233.64 572.707 234.474 572.096C235.308 571.485 235.926 570.625 236.24 569.64H284.84C285.152 570.624 285.768 571.484 286.6 572.095C287.433 572.706 288.437 573.037 289.47 573.04C289.806 573.038 290.141 573.005 290.47 572.94L314.71 614.87C313.886 615.758 313.428 616.924 313.428 618.135C313.428 619.346 313.886 620.512 314.71 621.4L290.47 663.34C290.13 663.282 289.784 663.261 289.44 663.28V663.29Z" fill="#59595B"/>
</g>
<g style="mix-blend-mode:screen">
<path d="M221.07 445.68C220.734 445.683 220.399 445.72 220.07 445.79L195.84 403.88C196.68 402.986 197.148 401.806 197.15 400.58C197.155 399.414 196.742 398.285 195.986 397.397C195.23 396.509 194.181 395.921 193.029 395.74C191.877 395.558 190.698 395.796 189.706 396.408C188.714 397.021 187.974 397.969 187.62 399.08H139.03C138.81 398.384 138.436 397.747 137.937 397.215C137.438 396.683 136.825 396.27 136.145 396.005C135.465 395.741 134.734 395.633 134.007 395.688C133.279 395.744 132.574 395.962 131.941 396.326C131.309 396.69 130.767 397.192 130.354 397.793C129.941 398.395 129.669 399.081 129.556 399.802C129.444 400.523 129.495 401.26 129.705 401.959C129.915 402.658 130.279 403.3 130.77 403.84L106.53 445.84C106.201 445.77 105.866 445.733 105.53 445.73C104.888 445.73 104.252 445.856 103.659 446.102C103.065 446.348 102.526 446.708 102.072 447.162C101.618 447.616 101.258 448.155 101.012 448.749C100.766 449.342 100.64 449.978 100.64 450.62C100.64 451.262 100.766 451.898 101.012 452.491C101.258 453.085 101.618 453.624 102.072 454.078C102.526 454.532 103.065 454.892 103.659 455.138C104.252 455.383 104.888 455.51 105.53 455.51C105.867 455.508 106.202 455.468 106.53 455.39L130.77 497.39C130.28 497.929 129.917 498.572 129.708 499.27C129.499 499.968 129.449 500.704 129.561 501.423C129.674 502.143 129.946 502.829 130.358 503.43C130.77 504.031 131.311 504.532 131.942 504.896C132.573 505.261 133.278 505.479 134.004 505.536C134.731 505.592 135.461 505.485 136.141 505.223C136.82 504.96 137.433 504.549 137.933 504.019C138.433 503.489 138.808 502.854 139.03 502.16H187.6C187.822 502.857 188.199 503.495 188.701 504.026C189.203 504.558 189.819 504.97 190.502 505.232C191.185 505.494 191.918 505.599 192.647 505.54C193.376 505.48 194.082 505.257 194.713 504.888C195.345 504.518 195.885 504.012 196.294 503.405C196.703 502.799 196.971 502.108 197.077 501.385C197.183 500.661 197.126 499.922 196.908 499.224C196.69 498.526 196.319 497.885 195.82 497.35L220.04 455.44C220.368 455.518 220.703 455.558 221.04 455.56C222.337 455.56 223.581 455.045 224.498 454.128C225.415 453.211 225.93 451.967 225.93 450.67C225.93 449.373 225.415 448.129 224.498 447.212C223.581 446.295 222.337 445.78 221.04 445.78L221.07 445.68ZM192.23 495.68C191.199 495.682 190.195 496.011 189.363 496.621C188.531 497.23 187.913 498.087 187.6 499.07H139.03C138.713 498.087 138.094 497.23 137.261 496.621C136.427 496.013 135.422 495.683 134.39 495.68C134.054 495.683 133.719 495.72 133.39 495.79L109.15 453.79C109.967 452.899 110.421 451.734 110.421 450.525C110.421 449.316 109.967 448.151 109.15 447.26L133.39 405.26C133.718 405.338 134.053 405.378 134.39 405.38C135.424 405.378 136.43 405.047 137.264 404.436C138.098 403.825 138.716 402.965 139.03 401.98H187.6C187.912 402.964 188.528 403.824 189.36 404.435C190.193 405.046 191.197 405.377 192.23 405.38C192.566 405.378 192.901 405.345 193.23 405.28L217.46 447.21C216.643 448.101 216.189 449.266 216.189 450.475C216.189 451.684 216.643 452.849 217.46 453.74L193.23 495.68C192.898 495.64 192.563 495.637 192.23 495.67V495.68Z" fill="#59595B"/>
</g>
<g style="mix-blend-mode:screen">
<path d="M416.18 558.4C415.844 558.406 415.508 558.446 415.18 558.52L390.93 516.59C391.426 516.054 391.796 515.413 392.011 514.714C392.227 514.016 392.283 513.278 392.175 512.555C392.067 511.833 391.799 511.143 391.389 510.538C390.979 509.933 390.438 509.428 389.807 509.06C389.176 508.692 388.47 508.47 387.742 508.411C387.013 508.352 386.281 508.458 385.599 508.72C384.916 508.982 384.302 509.394 383.8 509.925C383.298 510.457 382.922 511.094 382.7 511.79H334.14C333.78 510.685 333.039 509.744 332.049 509.136C331.058 508.528 329.884 508.292 328.735 508.471C327.587 508.651 326.54 509.233 325.782 510.114C325.025 510.996 324.606 512.118 324.6 513.28C324.58 514.5 325.023 515.683 325.84 516.59L301.59 558.54C300.872 558.375 300.126 558.373 299.407 558.536C298.688 558.699 298.016 559.022 297.439 559.481C296.862 559.94 296.397 560.523 296.077 561.187C295.757 561.851 295.59 562.578 295.59 563.315C295.59 564.052 295.757 564.779 296.077 565.443C296.397 566.107 296.862 566.69 297.439 567.149C298.016 567.608 298.688 567.931 299.407 568.094C300.126 568.257 300.872 568.255 301.59 568.09L325.84 610.02C325.018 610.911 324.561 612.078 324.56 613.29C324.566 614.452 324.985 615.574 325.743 616.455C326.5 617.337 327.547 617.919 328.695 618.098C329.844 618.278 331.018 618.042 332.009 617.434C332.999 616.826 333.74 615.885 334.1 614.78H382.66C382.882 615.476 383.258 616.113 383.76 616.645C384.262 617.176 384.876 617.588 385.559 617.85C386.241 618.112 386.973 618.218 387.701 618.159C388.43 618.1 389.136 617.878 389.767 617.51C390.398 617.142 390.939 616.637 391.349 616.032C391.759 615.427 392.027 614.737 392.135 614.014C392.243 613.292 392.187 612.554 391.971 611.856C391.756 611.157 391.386 610.516 390.89 609.98L415.11 568.07C415.438 568.143 415.774 568.184 416.11 568.19C416.771 568.22 417.432 568.115 418.052 567.883C418.672 567.65 419.238 567.295 419.717 566.837C420.196 566.38 420.577 565.83 420.837 565.221C421.097 564.612 421.231 563.957 421.231 563.295C421.231 562.633 421.097 561.978 420.837 561.369C420.577 560.76 420.196 560.21 419.717 559.753C419.238 559.295 418.672 558.94 418.052 558.707C417.432 558.475 416.771 558.37 416.11 558.4H416.18ZM387.34 608.4C386.307 608.4 385.301 608.728 384.467 609.338C383.633 609.947 383.014 610.806 382.7 611.79H334.14C333.826 610.806 333.207 609.947 332.373 609.338C331.539 608.728 330.533 608.4 329.5 608.4C329.164 608.403 328.829 608.44 328.5 608.51L304.22 566.59C305.044 565.702 305.502 564.536 305.502 563.325C305.502 562.114 305.044 560.948 304.22 560.06L328.47 518.06C328.799 518.13 329.134 518.167 329.47 518.17C330.503 518.17 331.509 517.842 332.343 517.232C333.177 516.623 333.796 515.764 334.11 514.78H382.67C382.984 515.764 383.603 516.623 384.437 517.232C385.271 517.842 386.277 518.17 387.31 518.17C387.646 518.172 387.98 518.142 388.31 518.08L412.55 560.01C411.733 560.901 411.279 562.066 411.279 563.275C411.279 564.484 411.733 565.649 412.55 566.54L388.32 608.49C387.997 608.429 387.669 608.399 387.34 608.4V608.4Z" fill="#59595B"/>
</g>
</g>
<g style="mix-blend-mode:multiply">
<g style="mix-blend-mode:screen">
<path d="M714.06 277.72C713.724 277.723 713.389 277.76 713.06 277.83L688.84 235.92C689.68 235.026 690.148 233.846 690.15 232.62C690.155 231.454 689.742 230.325 688.986 229.437C688.23 228.549 687.181 227.961 686.029 227.78C684.877 227.598 683.698 227.836 682.706 228.448C681.714 229.061 680.974 230.009 680.62 231.12H632.02C631.8 230.424 631.426 229.787 630.927 229.255C630.428 228.723 629.815 228.31 629.135 228.045C628.455 227.781 627.724 227.673 626.997 227.728C626.269 227.784 625.564 228.002 624.931 228.366C624.299 228.73 623.757 229.232 623.344 229.833C622.931 230.435 622.659 231.121 622.546 231.842C622.434 232.563 622.485 233.3 622.695 233.999C622.905 234.698 623.269 235.341 623.76 235.88L599.52 277.83C599.191 277.76 598.856 277.723 598.52 277.72C597.223 277.72 595.979 278.235 595.062 279.152C594.145 280.069 593.63 281.313 593.63 282.61C593.63 283.907 594.145 285.151 595.062 286.068C595.979 286.985 597.223 287.5 598.52 287.5C598.857 287.493 599.191 287.453 599.52 287.38L623.76 329.33C623.27 329.869 622.907 330.512 622.698 331.21C622.489 331.908 622.439 332.644 622.551 333.364C622.664 334.083 622.936 334.769 623.348 335.37C623.76 335.971 624.302 336.472 624.932 336.836C625.563 337.201 626.268 337.419 626.995 337.476C627.721 337.532 628.451 337.425 629.131 337.163C629.81 336.9 630.423 336.489 630.923 335.959C631.423 335.429 631.798 334.794 632.02 334.1H680.59C680.818 334.789 681.198 335.419 681.701 335.943C682.204 336.468 682.817 336.873 683.496 337.13C684.176 337.387 684.904 337.489 685.628 337.428C686.352 337.368 687.053 337.147 687.68 336.781C688.308 336.415 688.846 335.914 689.255 335.314C689.664 334.714 689.934 334.03 690.045 333.312C690.156 332.594 690.106 331.86 689.897 331.165C689.689 330.469 689.328 329.828 688.84 329.29L713.06 287.38C713.389 287.453 713.724 287.493 714.06 287.5C715.357 287.5 716.601 286.985 717.518 286.068C718.435 285.151 718.95 283.907 718.95 282.61C718.95 281.313 718.435 280.069 717.518 279.152C716.601 278.235 715.357 277.72 714.06 277.72V277.72ZM685.22 327.72C684.189 327.722 683.185 328.051 682.353 328.661C681.521 329.27 680.903 330.127 680.59 331.11H632.02C631.703 330.127 631.084 329.27 630.25 328.661C629.417 328.053 628.412 327.723 627.38 327.72C627.044 327.723 626.709 327.76 626.38 327.83L602.14 285.83C602.957 284.939 603.411 283.774 603.411 282.565C603.411 281.356 602.957 280.191 602.14 279.3L626.38 237.35C626.708 237.424 627.043 237.464 627.38 237.47C628.414 237.468 629.42 237.137 630.254 236.526C631.088 235.915 631.706 235.055 632.02 234.07H680.59C680.902 235.054 681.518 235.914 682.35 236.525C683.183 237.136 684.188 237.467 685.22 237.47C685.556 237.468 685.891 237.435 686.22 237.37L710.45 279.3C709.633 280.191 709.179 281.356 709.179 282.565C709.179 283.774 709.633 284.939 710.45 285.83L686.22 327.77C685.89 327.714 685.555 327.694 685.22 327.71V327.72Z" fill="#59595B"/>
</g>
<g style="mix-blend-mode:screen">
<path d="M811.31 219.71C810.974 219.712 810.639 219.749 810.31 219.82L786.08 177.91C786.92 177.016 787.388 175.836 787.39 174.61C787.395 173.444 786.982 172.315 786.226 171.427C785.47 170.539 784.421 169.951 783.269 169.77C782.117 169.588 780.938 169.826 779.946 170.438C778.954 171.051 778.214 171.999 777.86 173.11H729.26C729.04 172.414 728.666 171.777 728.167 171.245C727.668 170.713 727.055 170.3 726.375 170.035C725.695 169.771 724.965 169.663 724.237 169.718C723.509 169.774 722.804 169.992 722.172 170.356C721.539 170.72 720.997 171.222 720.584 171.823C720.171 172.425 719.899 173.112 719.786 173.832C719.674 174.553 719.725 175.29 719.935 175.989C720.145 176.688 720.509 177.331 721 177.87L696.76 219.87C696.431 219.8 696.096 219.763 695.76 219.76C694.463 219.76 693.219 220.275 692.302 221.192C691.385 222.109 690.87 223.353 690.87 224.65C690.87 225.947 691.385 227.191 692.302 228.108C693.219 229.025 694.463 229.54 695.76 229.54C696.097 229.534 696.432 229.494 696.76 229.42L721 271.42C720.51 271.959 720.148 272.602 719.938 273.3C719.729 273.998 719.679 274.734 719.791 275.454C719.904 276.173 720.176 276.859 720.588 277.46C721 278.061 721.542 278.562 722.173 278.926C722.804 279.291 723.508 279.509 724.235 279.566C724.961 279.622 725.691 279.515 726.371 279.253C727.05 278.99 727.663 278.579 728.163 278.049C728.663 277.519 729.038 276.884 729.26 276.19H777.84C778.063 276.887 778.439 277.525 778.941 278.056C779.443 278.588 780.059 279 780.742 279.262C781.425 279.524 782.158 279.629 782.887 279.57C783.616 279.51 784.322 279.287 784.954 278.918C785.585 278.548 786.125 278.042 786.534 277.435C786.943 276.829 787.211 276.138 787.317 275.415C787.423 274.691 787.366 273.953 787.148 273.254C786.93 272.556 786.559 271.915 786.06 271.38L810.29 229.47C810.964 229.622 811.663 229.629 812.34 229.491C813.017 229.353 813.657 229.074 814.218 228.67C814.779 228.267 815.248 227.75 815.595 227.152C815.941 226.554 816.157 225.89 816.228 225.203C816.299 224.516 816.224 223.821 816.007 223.165C815.791 222.509 815.437 221.907 814.971 221.397C814.504 220.888 813.935 220.483 813.3 220.209C812.666 219.936 811.981 219.799 811.29 219.81L811.31 219.71ZM782.46 269.71C781.432 269.713 780.431 270.042 779.601 270.65C778.771 271.257 778.155 272.111 777.84 273.09H729.26C728.943 272.108 728.324 271.25 727.491 270.641C726.657 270.033 725.652 269.703 724.62 269.7C724.284 269.703 723.949 269.74 723.62 269.81L699.38 227.81C700.197 226.919 700.651 225.754 700.651 224.545C700.651 223.336 700.197 222.171 699.38 221.28L723.62 179.33C723.949 179.403 724.284 179.443 724.62 179.45C725.654 179.448 726.66 179.117 727.494 178.506C728.328 177.895 728.947 177.035 729.26 176.05H777.84C778.152 177.034 778.768 177.894 779.6 178.505C780.433 179.116 781.438 179.447 782.47 179.45C782.806 179.448 783.141 179.415 783.47 179.35L807.71 221.28C806.886 222.168 806.429 223.334 806.429 224.545C806.429 225.756 806.886 226.922 807.71 227.81L783.47 269.75C783.136 269.696 782.798 269.68 782.46 269.7V269.71Z" fill="#59595B"/>
</g>
</g>
<g style="mix-blend-mode:multiply">
<g style="mix-blend-mode:screen">
<path d="M711.93 613.29C711.594 613.293 711.259 613.329 710.93 613.4L686.67 571.49C687.51 570.596 687.978 569.416 687.98 568.19C687.985 567.024 687.572 565.895 686.816 565.007C686.06 564.119 685.011 563.531 683.859 563.35C682.707 563.168 681.528 563.406 680.536 564.018C679.544 564.631 678.804 565.579 678.45 566.69H629.84C629.62 565.994 629.246 565.357 628.747 564.825C628.248 564.293 627.635 563.88 626.955 563.615C626.275 563.351 625.544 563.243 624.817 563.298C624.089 563.354 623.384 563.572 622.751 563.936C622.119 564.3 621.577 564.802 621.164 565.403C620.751 566.005 620.479 566.692 620.366 567.413C620.254 568.133 620.304 568.87 620.515 569.569C620.725 570.268 621.089 570.911 621.58 571.45L597.34 613.4C597.011 613.33 596.676 613.293 596.34 613.29C595.043 613.29 593.799 613.805 592.882 614.722C591.965 615.639 591.45 616.883 591.45 618.18C591.45 619.477 591.965 620.721 592.882 621.638C593.799 622.555 595.043 623.07 596.34 623.07C596.676 623.064 597.012 623.024 597.34 622.95L621.58 664.9C621.089 665.44 620.725 666.082 620.515 666.781C620.304 667.48 620.254 668.217 620.366 668.938C620.479 669.659 620.751 670.345 621.164 670.947C621.577 671.548 622.119 672.05 622.751 672.414C623.384 672.778 624.089 672.996 624.817 673.052C625.544 673.107 626.275 672.999 626.955 672.735C627.635 672.47 628.248 672.057 628.747 671.525C629.246 670.993 629.62 670.356 629.84 669.66H678.41C678.63 670.359 679.005 670.998 679.507 671.532C680.008 672.066 680.624 672.48 681.307 672.744C681.99 673.008 682.724 673.114 683.454 673.055C684.184 672.997 684.892 672.775 685.524 672.405C686.157 672.036 686.698 671.529 687.108 670.922C687.518 670.315 687.786 669.623 687.892 668.899C687.998 668.174 687.94 667.434 687.721 666.735C687.503 666.036 687.13 665.395 686.63 664.86L710.86 622.95C711.534 623.102 712.232 623.109 712.909 622.971C713.586 622.833 714.227 622.554 714.788 622.151C715.349 621.747 715.818 621.23 716.164 620.632C716.511 620.035 716.727 619.37 716.798 618.683C716.869 617.996 716.794 617.301 716.577 616.645C716.36 615.989 716.007 615.387 715.541 614.877C715.074 614.368 714.505 613.963 713.87 613.689C713.236 613.416 712.551 613.28 711.86 613.29H711.93ZM683.09 663.29C682.057 663.29 681.051 663.618 680.217 664.228C679.383 664.837 678.764 665.696 678.45 666.68H629.84C629.474 665.527 628.691 664.552 627.644 663.945C626.598 663.339 625.362 663.144 624.18 663.4L599.93 621.45C600.754 620.562 601.211 619.396 601.211 618.185C601.211 616.974 600.754 615.808 599.93 614.92L624.18 572.92C625.363 573.19 626.605 573.002 627.655 572.394C628.705 571.785 629.486 570.801 629.84 569.64H678.41C678.724 570.625 679.342 571.485 680.176 572.096C681.01 572.707 682.016 573.038 683.05 573.04C683.386 573.038 683.721 573.005 684.05 572.94L708.29 614.87C707.466 615.758 707.008 616.924 707.008 618.135C707.008 619.346 707.466 620.512 708.29 621.4L684.05 663.34C683.733 663.286 683.411 663.266 683.09 663.28V663.29Z" fill="#59595B"/>
</g>
</g>
<g style="mix-blend-mode:multiply">
<g style="mix-blend-mode:screen">
<path d="M120.47 49.99C120.134 49.9925 119.799 50.0293 119.47 50.1L95.22 8.19001C95.7164 7.65367 96.086 7.0127 96.3015 6.31441C96.517 5.61612 96.5729 4.87835 96.4651 4.15556C96.3573 3.43277 96.0886 2.74341 95.6787 2.13839C95.2688 1.53336 94.7283 1.02811 94.097 0.659932C93.4658 0.291758 92.7599 0.0700651 92.0315 0.0112127C91.3031 -0.0476396 90.5707 0.0578523 89.8885 0.319906C89.2064 0.581959 88.5917 0.99388 88.0901 1.52526C87.5884 2.05664 87.2124 2.69391 86.99 3.39002H38.42C38.1093 2.4156 37.4996 1.56374 36.6776 0.955266C35.8555 0.346788 34.8627 0.0125757 33.84 2.04085e-05C33.197 -0.00129453 32.5601 0.124218 31.9656 0.369375C31.3712 0.614531 30.8309 0.974514 30.3758 1.42872C29.9207 1.88293 29.5596 2.42245 29.3132 3.01639C29.0668 3.61032 28.94 4.24701 28.94 4.89002C28.9409 6.09911 29.398 7.26334 30.22 8.15001L5.97002 50.1C5.64131 50.0293 5.30623 49.9925 4.97002 49.99C3.67311 49.99 2.42932 50.5052 1.51226 51.4223C0.595211 52.3393 0.0800171 53.5831 0.0800171 54.88C0.0800171 56.1769 0.595211 57.4207 1.51226 58.3378C2.42932 59.2548 3.67311 59.77 4.97002 59.77C5.30623 59.7675 5.64131 59.7307 5.97002 59.66L30.17 101.59C29.3499 102.482 28.8932 103.648 28.89 104.86C28.89 105.503 29.0168 106.14 29.2632 106.734C29.5096 107.328 29.8707 107.867 30.3258 108.321C30.7809 108.776 31.3212 109.136 31.9156 109.381C32.5101 109.626 33.147 109.751 33.79 109.75C34.8213 109.748 35.8253 109.419 36.6573 108.809C37.4894 108.2 38.1066 107.343 38.42 106.36H86.99C87.2124 107.056 87.5884 107.693 88.0901 108.225C88.5917 108.756 89.2064 109.168 89.8885 109.43C90.5707 109.692 91.3031 109.798 92.0315 109.739C92.7599 109.68 93.4658 109.458 94.097 109.09C94.7283 108.722 95.2688 108.217 95.6787 107.612C96.0886 107.007 96.3573 106.317 96.4651 105.594C96.5729 104.872 96.517 104.134 96.3015 103.436C96.086 102.737 95.7164 102.096 95.22 101.56L119.44 59.66C120.112 59.8049 120.807 59.8065 121.479 59.6649C122.151 59.5232 122.786 59.2414 123.343 58.8379C123.899 58.4343 124.364 57.9181 124.707 57.3228C125.05 56.7275 125.264 56.0665 125.335 55.3829C125.406 54.6994 125.331 54.0086 125.117 53.3556C124.903 52.7027 124.554 52.1022 124.092 51.5934C123.63 51.0845 123.066 50.6787 122.437 50.4025C121.808 50.1262 121.127 49.9857 120.44 49.99H120.47ZM91.63 99.99C90.5978 99.993 89.593 100.323 88.7595 100.932C87.926 101.54 87.3066 102.398 86.99 103.38H38.42C38.111 102.404 37.5021 101.55 36.6799 100.939C35.8577 100.329 34.864 99.9933 33.84 99.98C33.5038 99.9825 33.1687 100.019 32.84 100.09L8.59002 58.14C9.40113 57.2488 9.84734 56.0851 9.84002 54.88C9.82821 53.6547 9.35304 52.4793 8.51001 51.59L32.76 9.65001C33.0887 9.72068 33.4238 9.75754 33.76 9.76001C34.7913 9.75797 35.7953 9.42861 36.6273 8.81938C37.4594 8.21015 38.0766 7.35251 38.39 6.37002H86.99C87.3066 7.35248 87.926 8.20955 88.7595 8.81849C89.593 9.42743 90.5978 9.757 91.63 9.76001C91.9658 9.75819 92.3006 9.72471 92.63 9.66002L116.84 51.59C116.016 52.4777 115.559 53.644 115.559 54.855C115.559 56.066 116.016 57.2323 116.84 58.12L92.61 100.08C92.2879 100.012 91.9593 99.9781 91.63 99.98V99.99Z" fill="#59595B"/>
</g>
<g style="mix-blend-mode:screen">
<path d="M219.13 107.67C218.794 107.672 218.459 107.709 218.13 107.78L193.84 65.88C194.339 65.3447 194.71 64.7042 194.928 64.0058C195.146 63.3075 195.203 62.5691 195.097 61.8454C194.991 61.1217 194.723 60.4311 194.314 59.8247C193.905 59.2184 193.365 58.7117 192.733 58.3423C192.102 57.9729 191.396 57.7501 190.667 57.6905C189.938 57.6308 189.205 57.7358 188.522 57.9977C187.839 58.2596 187.223 58.6717 186.721 59.2035C186.219 59.7353 185.842 60.3732 185.62 61.07H137.09C136.87 60.3737 136.496 59.7358 135.996 59.2032C135.496 58.6707 134.883 58.2571 134.202 57.993C133.521 57.7289 132.79 57.621 132.062 57.6772C131.333 57.7335 130.627 57.9525 129.995 58.318C129.363 58.6836 128.82 59.1864 128.408 59.7894C127.996 60.3925 127.725 61.0803 127.614 61.8021C127.503 62.524 127.556 63.2616 127.768 63.9605C127.98 64.6593 128.347 65.3016 128.84 65.84L104.59 107.78C104.261 107.71 103.926 107.673 103.59 107.67C102.293 107.67 101.049 108.185 100.132 109.102C99.2152 110.019 98.7 111.263 98.7 112.56C98.7 113.857 99.2152 115.101 100.132 116.018C101.049 116.935 102.293 117.45 103.59 117.45C103.926 117.447 104.261 117.41 104.59 117.34L128.84 159.29C128.012 160.189 127.555 161.368 127.56 162.59C127.555 163.756 127.968 164.885 128.724 165.773C129.48 166.661 130.529 167.249 131.681 167.43C132.833 167.612 134.012 167.374 135.004 166.762C135.996 166.149 136.736 165.201 137.09 164.09H185.66C186.014 165.201 186.754 166.149 187.746 166.762C188.738 167.374 189.917 167.612 191.069 167.43C192.221 167.249 193.27 166.661 194.026 165.773C194.782 164.885 195.195 163.756 195.19 162.59C195.189 161.363 194.721 160.183 193.88 159.29L218.11 117.38C218.782 117.525 219.477 117.527 220.149 117.385C220.821 117.243 221.456 116.961 222.013 116.558C222.569 116.154 223.034 115.638 223.377 115.043C223.72 114.447 223.934 113.786 224.005 113.103C224.076 112.419 224.001 111.729 223.787 111.076C223.573 110.423 223.224 109.822 222.762 109.313C222.3 108.805 221.736 108.399 221.107 108.123C220.478 107.846 219.797 107.706 219.11 107.71L219.13 107.67ZM190.29 157.67C189.259 157.672 188.255 158.001 187.423 158.611C186.591 159.22 185.973 160.078 185.66 161.06H137.09C136.773 160.078 136.154 159.22 135.321 158.612C134.487 158.003 133.482 157.673 132.45 157.67C132.113 157.672 131.778 157.712 131.45 157.79L107.18 115.83C107.997 114.939 108.451 113.774 108.451 112.565C108.451 111.356 107.997 110.191 107.18 109.3L131.42 67.3C131.749 67.3698 132.084 67.4066 132.42 67.41C133.452 67.407 134.457 67.0775 135.291 66.4685C136.124 65.8596 136.743 65.0025 137.06 64.02H185.63C185.943 65.0025 186.561 65.8602 187.393 66.4694C188.225 67.0786 189.229 67.408 190.26 67.41C190.596 67.4132 190.931 67.3796 191.26 67.31L215.49 109.25C214.673 110.141 214.219 111.306 214.219 112.515C214.219 113.724 214.673 114.889 215.49 115.78L191.26 157.71C190.939 157.664 190.614 157.647 190.29 157.66V157.67Z" fill="#59595B"/>
</g>
<g style="mix-blend-mode:screen">
<path d="M317.28 49.99C316.944 49.9929 316.609 50.0298 316.28 50.1L292.03 8.18998C292.526 7.65364 292.896 7.01267 293.111 6.31438C293.327 5.61609 293.383 4.87832 293.275 4.15553C293.167 3.43274 292.898 2.74338 292.489 2.13835C292.079 1.53333 291.538 1.02807 290.907 0.659899C290.276 0.291725 289.57 0.0700318 288.841 0.0111795C288.113 -0.0476728 287.381 0.0578191 286.698 0.319872C286.016 0.581926 285.402 0.993846 284.9 1.52523C284.398 2.0566 284.022 2.69387 283.8 3.38999H235.23C234.876 2.27881 234.136 1.33105 233.144 0.718318C232.152 0.105588 230.973 -0.131598 229.821 0.0497156C228.669 0.231029 227.62 0.818851 226.864 1.70674C226.108 2.59462 225.695 3.72387 225.7 4.88999C225.701 6.09908 226.158 7.26331 226.98 8.14998L202.73 50.1C202.017 49.9461 201.278 49.9538 200.568 50.1225C199.858 50.2912 199.195 50.6167 198.627 51.075C198.059 51.5334 197.601 52.113 197.287 52.7714C196.972 53.4298 196.809 54.1503 196.809 54.88C196.809 55.6097 196.972 56.3302 197.287 56.9886C197.601 57.647 198.059 58.2266 198.627 58.6849C199.195 59.1433 199.858 59.4688 200.568 59.6375C201.278 59.8062 202.017 59.8139 202.73 59.66L226.98 101.59C226.486 102.128 226.12 102.771 225.908 103.47C225.696 104.168 225.643 104.906 225.754 105.628C225.865 106.35 226.136 107.038 226.548 107.641C226.96 108.244 227.503 108.746 228.135 109.112C228.767 109.478 229.473 109.697 230.202 109.753C230.93 109.809 231.661 109.701 232.342 109.437C233.023 109.173 233.636 108.759 234.136 108.227C234.636 107.694 235.01 107.056 235.23 106.36H283.84C284.062 107.056 284.438 107.693 284.94 108.225C285.442 108.756 286.056 109.168 286.738 109.43C287.421 109.692 288.153 109.798 288.881 109.739C289.61 109.68 290.316 109.458 290.947 109.09C291.578 108.722 292.119 108.217 292.529 107.612C292.938 107.007 293.207 106.317 293.315 105.594C293.423 104.872 293.367 104.134 293.151 103.436C292.936 102.737 292.566 102.096 292.07 101.56L316.29 59.65C316.619 59.7202 316.954 59.757 317.29 59.76C318.587 59.76 319.831 59.2448 320.748 58.3277C321.665 57.4107 322.18 56.1669 322.18 54.87C322.18 53.5731 321.665 52.3293 320.748 51.4122C319.831 50.4952 318.587 49.98 317.29 49.98L317.28 49.99ZM288.44 99.99C287.408 99.993 286.403 100.323 285.569 100.932C284.736 101.54 284.117 102.398 283.8 103.38H235.23C234.917 102.397 234.299 101.54 233.467 100.931C232.635 100.321 231.631 99.992 230.6 99.99C230.264 99.9924 229.929 100.029 229.6 100.1L205.35 58.15C206.174 57.2623 206.631 56.096 206.631 54.885C206.631 53.674 206.174 52.5077 205.35 51.62L229.6 9.67998C229.929 9.75065 230.264 9.78751 230.6 9.78998C231.631 9.78793 232.635 9.45857 233.467 8.84935C234.299 8.24012 234.917 7.38247 235.23 6.39998H283.84C284.157 7.38244 284.776 8.23952 285.609 8.84846C286.443 9.4574 287.448 9.78697 288.48 9.78998C288.816 9.78816 289.151 9.75468 289.48 9.68998L313.66 51.59C312.836 52.4777 312.378 53.644 312.378 54.855C312.378 56.066 312.836 57.2323 313.66 58.12L289.42 100.06C289.097 99.9983 288.769 99.9715 288.44 99.98V99.99Z" fill="#59595B"/>
</g>
</g>
<g style="mix-blend-mode:screen" opacity="0.3">
<path d="M293.51 44.14H271.29L271.26 41.15V21.91H249.75V44.14H227.49V65.62H249.75V87.85H271.26V65.62H293.51V44.14Z" fill="#929496"/>
</g>
<g style="mix-blend-mode:screen" opacity="0.45">
<path d="M196.3 325.87H174.08L174.04 322.87V303.64H152.53V325.87H130.28V347.35H152.53V369.58H174.04V347.35H196.3V325.87Z" fill="#929496"/>
</g>
<g style="mix-blend-mode:screen" opacity="0.45">
<path d="M419.53 160.32H397.31L397.28 157.33V138.09H375.77V160.32H353.51V181.81H375.77V204.04H397.28V181.81H419.53V160.32Z" fill="#929496"/>
</g>
<g style="mix-blend-mode:screen" opacity="0.45">
<path d="M803.48 377.76H781.25L781.22 374.76V355.53H759.71V377.76H737.46V399.24H759.71V421.47H781.22V399.24H803.48V377.76Z" fill="#929496"/>
</g>
<g style="mix-blend-mode:screen" opacity="0.3">
<path d="M689.29 493.48H667.07L667.03 490.48V471.25H645.52V493.48H623.27V514.96H645.52V537.19H667.03V514.96H689.29V493.48Z" fill="#929496"/>
</g>
</svg>
