<svg width="629" height="419" viewBox="0 0 629 419" fill="none" xmlns="http://www.w3.org/2000/svg">
<g opacity="0.5">
<path opacity="0.49" d="M206.43 372.62H95.33V372.54L39.83 276.41V276.33L95.33 180.2H206.43V180.28L262 276.41V276.49L206.43 372.62ZM95.52 372.29H206.24L261.59 276.41L206.24 180.53H95.52L40.17 276.41L95.52 372.29Z" fill="#0A65B9"/>
<path opacity="0.49" d="M290.18 297.49H179.09L179.04 297.41L123.54 201.28V201.2L179.04 105.07H290.18L290.23 105.15L345.73 201.28L345.68 201.36L290.18 297.49ZM179.28 297.16H290L345.36 201.28L290 105.4H179.28L123.92 201.28L179.28 297.16Z" fill="#0A65B9"/>
</g>
<g opacity="0.5">
<path opacity="0.52" d="M572.82 192.42H461.72V192.34L406.22 96.21V96.13L461.72 0H572.82V0.08L628.32 96.21V96.29L572.82 192.42ZM461.92 192.09H572.63L628 96.21L572.63 0.33H461.92L406.56 96.21L461.92 192.09Z" fill="#0A65B9"/>
</g>
<g opacity="0.15">
<path opacity="0.15" d="M473.96 226.01H363.06L307.61 322.06L363.06 418.1H473.96L529.41 322.06L473.96 226.01Z" fill="#0A65B9"/>
</g>
<g opacity="0.1">
<path opacity="0.1" d="M549.47 99.96H438.57L383.12 196L438.57 292.05H549.47L604.92 196L549.47 99.96Z" fill="#0A65B9"/>
</g>
<g opacity="0.13">
<path opacity="0.13" d="M166.35 26.4399H55.45L0 122.48L55.45 218.53H166.35L221.81 122.48L166.35 26.4399Z" fill="#0A65B9"/>
</g>
</svg>
