<svg width="630" height="492" viewBox="0 0 630 492" fill="none" xmlns="http://www.w3.org/2000/svg">
<path d="M127.83 392.59C113.887 392.574 100.52 387.028 90.6608 377.169C80.8017 367.31 75.2559 353.943 75.24 340V20H58V340C58.0212 358.514 65.385 376.263 78.4761 389.354C91.5672 402.445 109.316 409.809 127.83 409.83H432.68V392.59H127.83Z" fill="white"/>
<path d="M201.5 20V68.68L186.69 103.75H165.37L172.93 68.68H158.87V20H201.5ZM146.63 20V68.68L131.81 103.75H110.65L118.06 68.68H104V20H146.63Z" fill="white"/>
<path d="M581.51 336V384.67L566.69 419.74H545.38L552.94 384.67H538.88V336H581.51ZM526.63 336V384.67L511.82 419.74H490.62L498.03 384.67H484V336H526.63Z" fill="white"/>
<path d="M559.84 36.24C573.783 36.2559 587.15 41.8017 597.009 51.6608C606.868 61.5199 612.414 74.8871 612.43 88.83V408.83H629.68V88.83C629.656 70.3155 622.29 52.5663 609.197 39.4755C596.105 26.3847 578.354 19.0212 559.84 19L255 19V36.24H559.84Z" fill="white"/>
</svg>
