<svg width="160" height="167" viewBox="0 0 160 167" fill="none" xmlns="http://www.w3.org/2000/svg">
<path d="M93.6938 138.356C93.0599 137.672 92.6147 136.835 92.4021 135.927C91.2277 136.659 90.0044 137.309 88.7407 137.873C87.5606 138.399 86.3494 138.851 85.1139 139.228C81.0122 140.467 76.6924 140.812 72.446 140.24C68.1457 139.632 63.9819 138.289 60.1365 136.27C57.0583 134.728 54.285 132.64 51.9512 130.108C51.4148 129.511 50.8933 128.904 50.3981 128.264C49.9989 127.757 49.6039 127.226 49.2242 126.665C52.4895 125.296 55.6203 123.626 58.576 121.677C62.5491 119.075 66.3064 116.159 69.8116 112.955C71.5463 111.418 73.2395 109.766 74.9155 108.06C75.7459 107.221 76.5584 106.363 77.3602 105.491L78.5559 104.169L79.5542 103.012L80.0045 102.49L79.9259 101.709C79.8521 101.177 79.6219 100.679 79.2645 100.279L79.154 100.137L78.0747 99.254L77.9081 99.1663C77.4976 98.92 77.0298 98.7852 76.5512 98.7751C76.2435 98.7811 75.9422 98.864 75.6749 99.0164C75.46 99.1316 75.272 99.2911 75.1232 99.4842L74.3164 100.419L73.1916 101.676C72.4348 102.498 71.6707 103.316 70.8697 104.152C69.2943 105.773 67.6652 107.338 66.0197 108.811C62.7415 111.824 59.2266 114.568 55.5087 117.018C52.6346 118.922 49.575 120.529 46.3769 121.817C45.6127 120.206 44.939 118.554 44.359 116.869C42.9795 112.606 41.9087 108.249 41.1548 103.832L40.7197 101.569C40.4334 100.058 40.1699 98.5041 39.8389 97.0257C39.3868 94.6187 38.7405 92.2522 37.9064 89.9496C37.4154 88.6352 36.7364 87.3989 35.8907 86.2794C35.7482 86.0934 35.5874 85.9069 35.4156 85.7239C34.4448 84.6787 33.2324 83.8876 31.8848 83.4198C29.1607 82.5771 26.2467 82.5688 23.5178 83.3959C18.3487 84.78 13.8875 88.0542 11.0171 92.5704C9.59744 94.9082 8.74075 97.5441 8.51471 100.27C8.31939 102.938 8.66974 105.618 9.54439 108.147C10.9486 112.346 13.4346 116.282 17.3705 120.538L17.6494 120.852C21.0418 124.646 25.4664 127.369 30.3819 128.688C34.9644 129.754 39.7433 129.633 44.2656 128.335C44.9407 129.369 45.6671 130.369 46.4421 131.331C46.9556 131.972 47.4877 132.594 48.0352 133.188C50.8581 136.257 54.2265 138.774 57.9689 140.613C62.3116 142.836 67.0066 144.289 71.8454 144.908C78.4908 145.73 85.2316 144.603 91.248 141.664C92.5862 141.023 93.8764 140.287 95.1088 139.462C94.5828 139.168 94.1055 138.795 93.6938 138.356V138.356ZM31.7591 123.3C27.8049 122.226 24.2569 120.006 21.5616 116.919L21.3399 116.673C18.0557 113.093 15.9121 109.753 14.7827 106.402C14.1454 104.57 13.8817 102.629 14.0071 100.694C14.1637 98.8152 14.7508 96.9978 15.7231 95.3826C17.8361 92.041 21.1172 89.6054 24.9274 88.5503C26.6226 88.0151 28.4348 87.9724 30.1533 88.427C30.6803 88.6037 31.1554 88.908 31.5364 89.3128L31.7185 89.529C32.2514 90.2395 32.6797 91.0227 32.9905 91.8547C33.7241 93.8787 34.2992 95.9566 34.7106 98.0698C35.0168 99.5075 35.3006 100.97 35.577 102.429L36.0464 104.804C36.8929 109.449 38.0766 114.026 39.5879 118.499C40.1609 120.107 40.814 121.686 41.5446 123.229C38.3309 124.024 34.9758 124.056 31.7477 123.322L31.7591 123.3Z" fill="white" fill-opacity="0.71"/>
<path d="M83.226 86.9479C81.2663 84.7075 79.908 82.006 79.2785 79.0969C78.4999 75.5687 78.5451 71.9085 79.4104 68.4006C80.8144 62.6106 83.7604 56.9484 88.6984 50.5599C90.7304 47.9664 92.9107 45.4927 95.2283 43.151C96.3805 41.9822 97.5689 40.8324 98.7633 39.7414C99.9935 38.5895 101.293 37.5133 102.653 36.5187C105.481 34.3396 108.816 32.9142 112.346 32.3761C114.269 32.1096 116.228 32.2805 118.076 32.8762C119.924 33.4719 121.614 34.477 123.019 35.8165L124.281 37.0731L121.027 40.0018L119.903 38.8359C119.025 37.9696 117.949 37.33 116.769 36.9722C115.532 36.5834 114.223 36.4756 112.939 36.6566C110.135 37.1351 107.495 38.3113 105.264 40.0771C102.81 41.9537 100.526 44.0439 98.4406 46.3231C96.3031 48.5792 94.2972 50.9564 92.4329 53.4429C88.1255 59.2665 85.469 64.5725 84.3896 69.5532C83.737 72.2953 83.7164 75.1499 84.3295 77.9011C84.8925 80.3435 86.2088 82.4797 87.6211 84.7498L88.8806 86.8007L86.0807 89.3767L84.9598 88.555C84.3361 88.0708 83.7559 87.5331 83.226 86.9479V86.9479Z" fill="white" fill-opacity="0.71"/>
<path d="M91.9369 96.2906C91.4819 95.7921 91.0626 95.2622 90.6821 94.7047L89.8582 93.5123L92.7554 90.8395L93.8854 91.7493C96.203 93.6177 98.5194 95.3653 101.162 96.212C103.883 97.0627 106.762 97.2791 109.579 96.8446C114.671 96.1328 120.135 93.9245 126.296 90.0766C128.918 88.4034 131.445 86.5849 133.864 84.6297C136.279 82.7415 138.527 80.6486 140.582 78.3741C142.52 76.283 143.904 73.7405 144.608 70.9779C144.88 69.7186 144.879 68.4154 144.605 67.1565C144.341 65.945 143.787 64.8154 142.991 63.8646L141.926 62.656L145.139 59.5947L146.278 60.9439C147.502 62.4521 148.369 64.2176 148.815 66.1084C149.26 67.9992 149.272 69.9662 148.85 71.8623C148.028 75.351 146.331 78.5726 143.918 81.2231C142.812 82.5004 141.629 83.7087 140.375 84.8411C139.195 85.9398 137.953 87.0335 136.686 88.0864C134.168 90.2006 131.529 92.1673 128.783 93.9764C122.006 98.3603 116.123 100.838 110.25 101.786C106.693 102.358 103.053 102.111 99.6064 101.062C96.6823 100.157 94.0408 98.5138 91.9369 96.2906Z" fill="white" fill-opacity="0.71"/>
<path d="M120.037 34.5779C121.306 33.3969 122.747 32.9443 123.353 33.5502L125.937 38.3708C126.28 38.7551 125.906 39.6768 125.092 40.4319L124.352 41.1153C123.531 41.8665 122.588 42.1649 122.234 41.784L117.618 38.853C117.024 38.2254 117.636 36.7999 118.894 35.6407L120.037 34.5779Z" fill="white" fill-opacity="0.71"/>
<path d="M147.264 64.1093C148.534 62.9284 149.081 61.4868 148.497 60.8558L143.772 57.765C143.407 57.3693 142.449 57.6601 141.635 58.4151L140.888 59.0947C140.074 59.8498 139.707 60.7754 140.072 61.1711L142.778 66.1297C143.365 66.7717 144.868 66.3058 146.126 65.1649L147.264 64.1093Z" fill="white" fill-opacity="0.71"/>
<path d="M78.815 102.974C77.487 102.18 76.4191 101.016 75.7419 99.625C75.0261 98.8594 80.8617 86.3956 82.6154 83.9621C83.9363 82.0868 86.9138 82.527 88.4779 84.1927L95.2112 91.5135C96.7678 93.1937 96.9525 96.2137 94.9806 97.3761C92.3934 98.8988 79.527 103.746 78.815 102.974Z" fill="white" fill-opacity="0.71"/>
<path d="M104.673 128.223C102.963 126.369 100.586 125.27 98.0655 125.169C95.545 125.067 93.0874 125.971 91.2333 127.681C89.3792 129.392 88.2805 131.769 88.179 134.289C88.0774 136.81 88.9813 139.267 90.6917 141.121C90.878 141.312 91.0536 141.488 91.2475 141.664C93.0553 143.315 95.4301 144.204 97.8774 144.148C100.325 144.092 102.656 143.094 104.386 141.362C106.116 139.63 107.112 137.297 107.165 134.85C107.219 132.403 106.326 130.029 104.673 128.223V128.223ZM101.413 138.677C100.579 139.443 99.5271 139.93 98.4035 140.072C97.2799 140.214 96.1399 140.004 95.1411 139.47C94.6142 139.179 94.1356 138.808 93.7223 138.371C92.7551 137.306 92.2483 135.902 92.3124 134.464C92.3766 133.027 93.0064 131.674 94.0645 130.699C95.1417 129.858 96.4957 129.454 97.8575 129.565C99.2193 129.677 100.489 130.297 101.415 131.302C102.341 132.307 102.854 133.623 102.854 134.99C102.854 136.356 102.34 137.672 101.413 138.677Z" fill="white" fill-opacity="0.71"/>
</svg>
